<svg xmlns="http://www.w3.org/2000/svg" viewBox="0 0 110.2 137.91"><defs><style>.cls-1{fill:#575656;}</style></defs><g id="Capa_2" data-name="Capa 2"><g id="Capa_1-2" data-name="Capa 1"><path class="cls-1" d="M110.2,72.84q0,27.22,0,54.45c0,6.42-4.19,10.62-10.59,10.62h-89c-6.26,0-10.5-4.26-10.5-10.56C.09,91.16.18,55,0,18.79,0,13,3.5,7.16,11.54,7.23c9.26.09,18.52,0,27.78,0,2.47,0,2.47,0,2.47-2.5,0-.7,0-1.4,0-2.1A2.61,2.61,0,0,1,44.53,0Q55.12,0,65.7,0a2.64,2.64,0,0,1,2.78,2.73,23.55,23.55,0,0,1,0,2.91c-.08,1.21.44,1.61,1.61,1.6,4.25,0,8.51,0,12.76,0,6,.07,12.06-.25,18.08.18a9.92,9.92,0,0,1,9.26,10Q110.21,45.14,110.2,72.84Zm-96-.24c0,15.56,0,31.13,0,46.69,0,1.46.39,1.95,1.91,1.95q39.09-.08,78.2,0c1.52,0,1.9-.5,1.9-1.95q0-46.6,0-93.22c0-1.43-.34-2-1.89-2-8.34.07-16.69,0-25,0a2.51,2.51,0,0,0-2.37,1.24,9.33,9.33,0,0,1-8.23,4.27c-2.32,0-4.63,0-6.95,0a9.3,9.3,0,0,1-8.23-4.27,2.62,2.62,0,0,0-2.53-1.24c-8.19,0-16.37,0-24.56,0-2.18,0-2.19,0-2.19,2.25Zm90.37.14c0-17.88-.07-35.76.06-53.64,0-4.09-1.77-6.15-6.13-6.05-8.88.19-17.77,0-26.66.06-3.77,0-3.26-.43-3.29,3.24,0,2.08,0,2.09,2.17,2.09q13.72,0,27.46,0c2.77,0,3.67.91,3.67,3.69v101c0,2.87-.9,3.78-3.75,3.78q-42.9,0-85.8,0c-2.87,0-3.78-.9-3.78-3.74v-101c0-2.85.89-3.72,3.79-3.72,8.73,0,17.45,0,26.18,0,3.83,0,3.23.52,3.37-3.34.06-1.55-.44-2-2-2-9.53.07-19.07,0-28.6,0-3.91,0-5.45,1.55-5.45,5.49V126.69c0,4,1.57,5.54,5.58,5.54H98.93c4.09,0,5.6-1.53,5.6-5.68ZM62.8,13.54c0-2.16,0-4.31,0-6.46,0-1-.41-1.42-1.43-1.41-4.14,0-8.28,0-12.42,0-1.13,0-1.51.41-1.5,1.51,0,4.2,0,8.39,0,12.59a3.92,3.92,0,0,0,4.14,4.16c2.26,0,4.52,0,6.78,0,2.75,0,4.31-1.53,4.37-4.26C62.84,17.62,62.8,15.58,62.8,13.54Z"/><path class="cls-1" d="M55.07,87.8q-14.79,0-29.57,0c-2.24,0-3.41-1-3.47-2.73a2.71,2.71,0,0,1,2.42-2.92,9.27,9.27,0,0,1,1.29,0q29.4,0,58.81,0c2.29,0,3.44.74,3.68,2.31a2.75,2.75,0,0,1-2.79,3.35c-1.83.08-3.66,0-5.5,0Z"/><path class="cls-1" d="M51,67H75.57a8.09,8.09,0,0,1,2.4.23,2.71,2.71,0,0,1,2.09,2.74,2.58,2.58,0,0,1-2.16,2.65,10.74,10.74,0,0,1-2.4.24q-24.55,0-49.11,0a11.19,11.19,0,0,1-2.24-.22A2.51,2.51,0,0,1,22,70.11a2.67,2.67,0,0,1,1.88-2.87A6.72,6.72,0,0,1,26.3,67Z"/><path class="cls-1" d="M44.32,55.81H25.91a7.87,7.87,0,0,1-1.61-.08,2.81,2.81,0,0,1-.13-5.51,5.3,5.3,0,0,1,1.44-.1H63.07c2,0,3.07.7,3.43,2.06.52,2-.81,3.62-3.13,3.63C57,55.82,50.67,55.81,44.32,55.81Z"/></g></g></svg>