<svg xmlns="http://www.w3.org/2000/svg" viewBox="0 0 119.83 134.2"><defs><style>.cls-1{fill:#575656;}</style></defs><g id="Capa_2" data-name="Capa 2"><g id="Capa_1-2" data-name="Capa 1"><path class="cls-1" d="M75.73,0a3.15,3.15,0,0,1,1.88,3.44c-.6,3.39,1,4.67,4,6.07C98.24,17.17,108.34,30.16,112,48.15a48.84,48.84,0,0,1,.78,11.45,1.84,1.84,0,0,0,1.37,2.15c1.24.41,2.42,1,3.62,1.53a3.25,3.25,0,0,1,2.11,3.28c0,4.5,0,9,0,13.49,0,2.33-1.07,3.43-3.41,3.56-2.89.16-2.88.16-2.89,3.07,0,.74,0,1.49,0,2.23a2.89,2.89,0,0,1-3.11,2.85c-2.79,0-5.59,0-8.38,0a1.35,1.35,0,0,0-1.56,1.16,33.3,33.3,0,0,1-3.11,7.48,1.48,1.48,0,0,0,.37,2.12c1.84,1.75,3.61,3.56,5.39,5.36s1.87,3.45,0,5.31q-5.31,5.35-10.65,10.65c-1.85,1.82-3.34,1.81-5.21,0s-3.72-3.68-5.55-5.56a1.27,1.27,0,0,0-1.8-.33,35.68,35.68,0,0,1-7.71,3.21,1.32,1.32,0,0,0-1.1,1.5c0,2.75,0,5.5,0,8.25,0,2.09-1.12,3.28-3.21,3.29q-7.92.06-15.85,0c-2.16,0-3.3-1.22-3.34-3.51q-.06-3.93,0-7.86A1.51,1.51,0,0,0,47.45,121,32,32,0,0,1,40.11,118a1.27,1.27,0,0,0-1.82.25c-1.81,1.89-3.68,3.73-5.54,5.56s-3.44,1.88-5.3,0q-5.34-5.31-10.65-10.65c-1.83-1.85-1.83-3.34,0-5.19s3.74-3.79,5.66-5.63a1.18,1.18,0,0,0,.25-1.69,37.19,37.19,0,0,1-3.22-7.71,1.4,1.4,0,0,0-1.59-1.16c-2.75,0-5.5,0-8.25,0a2.83,2.83,0,0,1-3.16-3.14c0-1.31,0-2.62,0-3.93,0-.79-.32-1.09-1.09-1.08a10.58,10.58,0,0,1-3.12-.22,2.78,2.78,0,0,1-2.1-2.25,14.4,14.4,0,0,1-.18-3c0-3.62,0-7.25,0-10.87,0-2.12.75-3.6,2.87-4.29,1-.32,1.91-.87,2.9-1.19A1.68,1.68,0,0,0,7,59.84,54.38,54.38,0,0,1,9.13,42.91,52.26,52.26,0,0,1,26.47,16.67,50.74,50.74,0,0,1,40.79,8.39a1.73,1.73,0,0,0,1.38-2c-.08-.91,0-1.84,0-2.75A3.85,3.85,0,0,1,44,0ZM59.89,77.71q26.19,0,52.37,0c1.31,0,1.79-.34,1.73-1.69-.1-2.22-.06-4.45,0-6.67a1.62,1.62,0,0,0-1.15-1.8c-1.14-.43-2.23-1-3.37-1.43a3.4,3.4,0,0,1-2.4-3.61,61.1,61.1,0,0,0-.79-13.17C103.08,33.22,94,21.61,79.08,14.66c-1.41-.65-1.43-.61-1.43.95v38c0,2.82-1,3.84-3.88,3.85H56.36c-3.54,0-7.08,0-10.61,0-2.27,0-3.37-1.06-3.57-3.31,0-.52,0-1,0-1.57q0-18.33,0-36.66c0-1.8,0-1.82-1.72-1.06a46.73,46.73,0,0,0-27,36A74.83,74.83,0,0,0,13,62.34a3.57,3.57,0,0,1-2.45,3.74c-1.18.46-2.31,1-3.5,1.48a1.6,1.6,0,0,0-1.15,1.78c.06,2.1,0,4.19,0,6.29s0,2.08,2,2.08Zm-35.18,5.9c-3.76,0-7.51,0-11.26,0-.83,0-1.31.15-1.3,1.15s.44,1.19,1.28,1.18c2.31,0,4.63-.05,6.94,0,2.65.07,3.39.64,4.05,3.19A38.43,38.43,0,0,0,29,99.81c1.2,1.94,1,3.13-.61,4.78s-3.3,3.37-5,5c-.69.65-.76,1.1,0,1.8,2,1.93,4,3.92,5.93,5.93.61.64,1,.58,1.58,0,1.72-1.79,3.49-3.55,5.27-5.29,1.5-1.47,2.6-1.67,4.33-.61A41.41,41.41,0,0,0,52,116.2c1.89.47,2.58,1.47,2.6,3.4,0,2.44,0,4.89,0,7.33,0,1.11.39,1.45,1.45,1.42,2.58,0,5.15,0,7.73,0,1.14,0,1.55-.38,1.52-1.52-.06-2.31-.07-4.63,0-6.94s.77-3.15,3-3.7a40.48,40.48,0,0,0,11.07-4.63c1.93-1.15,3-.94,4.66.68s3.42,3.37,5.08,5.11c.64.67,1.06.63,1.69,0,1.94-2,3.93-4,5.94-5.92.6-.59.79-1,.08-1.69-1.65-1.56-3.23-3.2-4.83-4.81-2-2-2.17-3-.72-5.4a37.54,37.54,0,0,0,4.22-10.11c.74-2.87,1.53-3.46,4.49-3.49q3.28,0,6.55,0c.83,0,1.15-.32,1.18-1.17,0-1.1-.6-1.15-1.42-1.15-7.38,0-14.76,0-22.14,0-1.14,0-1.5.45-1.69,1.46a22.89,22.89,0,0,1-44.92.08c-.22-1.26-.75-1.54-1.89-1.53C32,83.65,28.33,83.61,24.71,83.61Zm47-54.84c0-7.15,0-14.3,0-21.46,0-1.1-.26-1.55-1.45-1.54q-10.41.06-20.81,0C48.31,5.76,48,6.18,48,7.3q0,21.39,0,42.79c0,1.18.4,1.47,1.51,1.46,6.89,0,13.79,0,20.68,0,1.23,0,1.55-.41,1.54-1.59C71.71,42.91,71.74,35.84,71.74,28.77ZM60,83.61c-5.15,0-10.3,0-15.44,0-1.07,0-1.41.32-1.1,1.41a20.71,20.71,0,0,0,1.14,3,17,17,0,0,0,31.83-3c.3-1.16,0-1.44-1.13-1.43C70.22,83.64,65.12,83.61,60,83.61Z"/></g></g></svg>