<svg xmlns="http://www.w3.org/2000/svg" viewBox="0 0 129.37 163.68"><defs><style>.cls-1{fill:#575656;}</style></defs><g id="Capa_2" data-name="Capa 2"><g id="Capa_1-2" data-name="Capa 1"><path class="cls-1" d="M63.09,163.68A60.07,60.07,0,0,1,57,157.83c-11.6-11.59-22.89-23.45-32.77-36.57C15.29,109.38,7.56,96.85,3.13,82.51A65.19,65.19,0,0,1,.21,57.64c1-11.66,5.49-22,12.62-31.19C20.75,16.21,30.38,8.1,42.76,4,67-4.1,89,0,108.15,17.28A63.6,63.6,0,0,1,127,46.4c3.85,12.83,2.76,25.52-1.39,38.08-4,12-10.35,22.82-17.71,33.05C96.73,133.06,83.5,146.75,70,160.22a28.51,28.51,0,0,1-3.74,3.46ZM64.15,8A69.83,69.83,0,0,0,53.88,9.14C39.31,12.05,28,20,19,31.61,11.89,40.89,8,51.32,8,63.06a60.42,60.42,0,0,0,3.64,19.66c4.1,11.72,10.5,22.17,17.83,32.09C39.73,128.67,51.65,141,63.75,153.24c.78.78,1.24.64,1.93-.07,3.69-3.83,7.45-7.6,11.14-11.43A279.47,279.47,0,0,0,98.22,117C106,106.74,113,95.93,117.35,83.68c3.67-10.23,5.2-20.67,2.83-31.46-2-9.06-6.44-16.82-12.41-23.78C96.43,15.22,82.07,8.37,64.15,8Z"/><path class="cls-1" d="M64.64,95.6A28.33,28.33,0,1,1,93,67.35,28.21,28.21,0,0,1,64.64,95.6Zm0-48.64a20.52,20.52,0,0,0-20.3,20.36c0,11,9.26,20.34,20.25,20.25a20.31,20.31,0,1,0,0-40.61Z"/></g></g></svg>