<svg xmlns="http://www.w3.org/2000/svg" viewBox="0 0 135.05 161.56"><defs><style>.cls-1{fill:#575656;}</style></defs><g id="Capa_2" data-name="Capa 2"><g id="Capa_1-2" data-name="Capa 1"><path class="cls-1" d="M71.41,0c4.2.74,8.36,1.63,12.15,3.67,12.37,6.64,20.12,16.61,21.7,30.82A38.94,38.94,0,0,1,79.34,75.85,39.47,39.47,0,0,1,33.5,60c-8.63-13.3-8.24-32.77,2.55-45.62C42.62,6.54,50.79,1.51,61,.19a4.18,4.18,0,0,0,.6-.19ZM37.28,39C37.1,55.65,51.67,68.42,67.09,68.15c15-.26,28.91-13.52,28.65-29.76C95.51,23.8,83.25,9.55,66.43,9.62A29.19,29.19,0,0,0,37.28,39Z"/><path class="cls-1" d="M67.52,161.52c-13.6,0-27.2.11-40.81,0A26.58,26.58,0,0,1,7,153,25.15,25.15,0,0,1,.11,136.37a93.79,93.79,0,0,1,3.73-31.73C5.93,97.78,9,91.43,14.17,86.29c5.94-5.91,13.25-8.45,21.52-8.5A8.11,8.11,0,0,1,40,79.22c2.47,1.5,4.9,3.06,7.34,4.61C53.9,88,61,90.38,68.89,90.05a37.79,37.79,0,0,0,18.24-5.84C89.05,83,91,81.88,92.8,80.52c3.68-2.81,7.73-3.11,12.1-2.32C115,80,122.12,85.73,127,94.59c3.88,7.11,5.76,14.82,7,22.75a110.52,110.52,0,0,1,1.1,15.52c.24,15-8.15,25.48-22,28.14a22.7,22.7,0,0,1-5,.52c-.31,0-.63,0-.94,0H67.52Zm2.64-9.67c11.24-.25,25.22.42,39.18-.31a16.76,16.76,0,0,0,9.73-3.65c4.87-3.84,6.32-9.18,6.09-15a111,111,0,0,0-.87-13.5c-1.09-6.76-2.43-13.42-5.71-19.54-3.11-5.8-7.38-10.16-14.06-11.67-2.69-.61-5.12-.61-7.41,1.27a41.79,41.79,0,0,1-5,3.28A47.34,47.34,0,0,1,67.81,100a46.41,46.41,0,0,1-18.37-3.86C44.92,94.3,41,91.44,36.91,88.88a4.79,4.79,0,0,0-2.86-1.15,18.85,18.85,0,0,0-12.86,5.5,30.53,30.53,0,0,0-6.74,10.92c-3.87,10.34-4.88,21.1-4.43,32a15.65,15.65,0,0,0,11,14.44,29.1,29.1,0,0,0,9.17,1.2C42.63,151.89,55,151.85,70.16,151.85Z"/></g></g></svg>