<svg xmlns="http://www.w3.org/2000/svg" viewBox="0 0 156.16 134.88"><defs><style>.cls-1{fill:#575656;}</style></defs><g id="Capa_2" data-name="Capa 2"><g id="Capa_1-2" data-name="Capa 1"><path class="cls-1" d="M0,33.28c.62-.65.57-1.58,1-2.34,2.12-4.32,5.74-6.12,10.37-6.15,5.13,0,10.27,0,15.4,0h117.7c3.66,0,6.93.92,9.34,3.89A9.87,9.87,0,0,1,156.12,35c0,7.93.07,15.86,0,23.78a10.57,10.57,0,0,1-8.47,9.88q-26.76,6-53.54,11.89c-1.39.31-1.87.79-1.8,2.26.13,2.84,0,5.69,0,8.53,0,3.33-1.19,4.52-4.46,4.52q-9.84,0-19.67,0c-3.19,0-4.38-1.2-4.4-4.43,0-3-.06-6,0-9,0-1.12-.31-1.57-1.4-1.81q-17.3-3.8-34.56-7.67c-6.33-1.41-12.65-2.84-19-4.23a10.66,10.66,0,0,1-8.6-8.06A2.38,2.38,0,0,0,0,60.12ZM78.23,32H11.75c-3.55,0-4.61,1-4.62,4.62q0,10.22,0,20.43c0,3.28.79,4.19,4,4.9q25.5,5.69,51,11.41c1.7.38,1.7.39,1.71-1.39,0-3.4,1.19-4.55,4.59-4.55H87.76c3.4,0,4.56,1.15,4.59,4.55,0,1.78,0,1.77,1.71,1.39q25.5-5.72,51-11.41c3.17-.71,4-1.62,4-4.9q0-10.22,0-20.43a13.83,13.83,0,0,0-.16-1.82,3,3,0,0,0-2.79-2.74,16.15,16.15,0,0,0-2-.06Zm6.88,49.61c0-1.93,0-3.86,0-5.79,0-1-.29-1.31-1.29-1.29-3.86,0-7.72,0-11.58,0-.86,0-1.27.17-1.25,1.16,0,4,0,7.93,0,11.89,0,.86.25,1.15,1.12,1.14q6-.06,11.89,0c.9,0,1.12-.34,1.1-1.16C85.08,85.6,85.11,83.61,85.11,81.63Z"/><path class="cls-1" d="M78,134.86q-31.48,0-63,0c-4.68,0-8.27-1.68-10.46-5.94a12.14,12.14,0,0,1-1.11-5.62q0-22.11,0-44.21c0-2.78.75-4,2.75-4.44a3.39,3.39,0,0,1,4.36,2.84,12.39,12.39,0,0,1,.07,1.83v43.6a8.92,8.92,0,0,0,.16,2.12,3,3,0,0,0,2.67,2.51,18.77,18.77,0,0,0,2.11.18q62.43,0,124.87,0c.65,0,1.31-.08,2-.14a3,3,0,0,0,2.92-2.79,11.06,11.06,0,0,0,.12-1.82V78.79c0-2.61.89-3.82,3-4.21a3.34,3.34,0,0,1,4,2.81,12.86,12.86,0,0,1,.17,2q0,21.89,0,43.76c0,4.73-1.61,8.52-6,10.73a12.09,12.09,0,0,1-5.63,1q-14.57,0-29.12,0Z"/><path class="cls-1" d="M78.07,0C84,0,90,0,95.9,0a10.15,10.15,0,0,1,10.29,8.22,20,20,0,0,1,.15,6.82c-.17,1.67-1.72,2.69-3.56,2.65a3.28,3.28,0,0,1-3.34-2.91c-.23-1.62.07-3.25-.25-4.86A3,3,0,0,0,96.51,7.3a16.22,16.22,0,0,0-2-.18H61c-2.95.09-4.12,1.24-4.22,4.18,0,1.17,0,2.34-.09,3.5a3.18,3.18,0,0,1-3,2.91c-1.86.17-3.6-.7-3.79-2.32-.46-4-.71-8,2.11-11.47A9.85,9.85,0,0,1,59.78.06C65.87,0,72,0,78.07,0Z"/></g></g></svg>