<svg xmlns="http://www.w3.org/2000/svg" viewBox="0 0 206.64 134.83"><defs><style>.cls-1{fill:#575656;}</style></defs><g id="Capa_2" data-name="Capa 2"><g id="Capa_1-2" data-name="Capa 1"><path class="cls-1" d="M103.47,0q43.8,0,87.61,0c7.58,0,13.14,4.12,14.93,11a23,23,0,0,1,.63,5.79q0,50.7,0,101.4c0,7.85-3.38,13.35-9.53,15.61a17,17,0,0,1-5.95,1q-87.85,0-175.7,0C6.07,134.81.06,128.48,0,118.6,0,102.17,0,85.74,0,69.31Q0,42.91,0,16.5C0,10.86,1.56,5.89,6.54,2.55A16.56,16.56,0,0,1,16.08,0ZM17.6,126.9H188.91c-.45-.64-.69-1-1-1.38q-25.29-30.33-50.54-60.67c-1.19-1.43-1.93-1.22-3.18-.21-5.44,4.42-10.89,8.82-16.44,13.11-9,6.94-19.89,6.94-28.9,0-5.18-4-10.25-8.13-15.35-12.22-3.45-2.78-2.67-2.49-5.28.61Q49.57,88.42,31,110.79C26.6,116.05,22.23,121.32,17.6,126.9Zm-2.72-119a3.35,3.35,0,0,0,1.63,2Q54.7,40.51,92.91,71.07c6.75,5.41,14.08,5.41,20.87,0L190.18,9.9c.61-.49,1.46-.85,1.51-2ZM8,67.89v50.22a35.56,35.56,0,0,0,.16,3.73c.1.83.3,1.85,1.21,2.09s1.08-.75,1.51-1.26Q37,91.39,63.16,60.13c1.29-1.54.92-2.22-.42-3.29Q36.63,36,10.55,15.16c-.64-.51-1.25-1.63-2.07-1.23S8,15.62,8,16.5Q8,42.2,8,67.89Zm190.61.23q0-26.06,0-52.1c0-.73.37-1.74-.45-2.11s-1.18.55-1.71,1q-26.26,21-52.55,42c-1.38,1.11-1.65,1.78-.39,3.28q17.2,20.48,34.26,41.08,9,10.86,18.1,21.7c1.25,1.5,1.82,1.39,2.43-.43a12.1,12.1,0,0,0,.32-3.93Q198.64,93.35,198.63,68.12Z"/></g></g></svg>