<svg xmlns="http://www.w3.org/2000/svg" viewBox="0 0 177.06 165.39"><defs><style>.cls-1{fill:#575656;}</style></defs><g id="Capa_2" data-name="Capa 2"><g id="Capa_1-2" data-name="Capa 1"><path class="cls-1" d="M0,154.17a9.32,9.32,0,0,1,9.17-6.57c1.15,0,1.52-.56,1.44-1.61,0-.58,0-1.16,0-1.73q0-62,0-124C10.57,16,12,13,16.22,11.61a1.42,1.42,0,0,0,1-1.59,18.47,18.47,0,0,1,.26-4.13A7.17,7.17,0,0,1,24.77,0c5.4.24,10.78.71,16.17,1.12,5.21.4,10.42.84,15.64,1.26Q66.89,3.22,77.2,4c4.75.38,9.5.82,14.26,1.09s7.7,3,8.05,7.76a6.12,6.12,0,0,1,0,1.21c-.23,2.15.09,3.65,2.59,4.59,3,1.12,4,3.91,4,7q0,21.86,0,43.71c0,2.54,0,2.54,2.59,2.54h47.16c.75,0,1.5,0,2.25,0,5.57.43,8.12,3.2,8.12,8.82,0,3.74,0,7.49,0,11.23,0,2.33-1,3.55-2.84,3.53s-2.83-1.23-2.85-3.57c0-3.91,0-7.83,0-11.74,0-2-.63-2.68-2.7-2.68-16.7,0-33.4,0-50.09,0-1.53,0-1.64.75-1.64,1.93q0,20.22,0,40.43c0,8.46,0,16.93,0,25.39,0,1.68.38,2.31,2.19,2.31q25.05-.1,50.1,0c1.81,0,2.21-.62,2.2-2.31-.06-12.84,0-25.68,0-38.52a6.73,6.73,0,0,1,.27-2.56,2.76,2.76,0,0,1,5.36.48,10.79,10.79,0,0,1,.07,1.89c0,12.9,0,25.8,0,38.69,0,1.68.42,2.28,2.16,2.39,6.79.45,9.85,6.29,8.22,11.65a8.72,8.72,0,0,1-8.06,6c-1.49,0-3,0-4.49,0q-77,0-153.91,0C5.24,165.4,1.89,163.53,0,159ZM16.31,82.6v62.52c0,2.45,0,2.46,2.5,2.46h15c8.24,0,16.47,0,24.7,0,1.61,0,2.33-.39,2.19-2.12s0-3.34,0-5c0-2.23,1-3.47,2.66-3.57s2.88,1.28,3,3.52c.07,1.73.1,3.46,0,5.18-.09,1.52.5,2,2,2,5.93-.06,11.86,0,17.79,0,1.38,0,1.93-.39,1.93-1.86q-.08-15.88,0-31.78c0-1.52-.51-2-2-2q-8.8.09-17.62,0c-1.55,0-2.14.48-2.11,2.08q.12,6.48,0,13c0,2.11-1.31,3.43-2.93,3.38s-2.67-1.34-2.67-3.54c0-5.12,0-10.24,0-15.37,0-3.46,1.62-5.1,5-5.1H88.2c4,0,5.53,1.56,5.53,5.54q0,15.72,0,31.44c0,4.23,0,4.23,4.18,4.22,2.54,0,2.54,0,2.54-2.57V26.69c0-.52,0-1,0-1.55a1.77,1.77,0,0,0-1.74-1.8c-2.64-.24-5.27-.48-7.9-.69-5.16-.4-10.32-.76-15.48-1.16C68.66,21,62,20.4,55.38,19.88c-5.1-.4-10.21-.75-15.31-1.15-6.81-.53-13.62-1.14-20.44-1.6-3.09-.21-3.32.12-3.32,3.28Zm72.13,77.07h77.74c.8,0,1.61,0,2.41,0a2.8,2.8,0,0,0,2.77-2.6,3.07,3.07,0,0,0-1.78-3.41,5.56,5.56,0,0,0-2.71-.37H10a11.08,11.08,0,0,0-1.73.06,3.32,3.32,0,0,0-2.84,3.38,3,3,0,0,0,3.18,3c.75,0,1.5,0,2.24,0ZM93.86,14.6c0-3.32-.1-3.53-3.35-3.91-2.74-.32-5.5-.39-8.26-.6L62,8.47c-5-.39-10-.74-15-1.14C40.44,6.8,33.86,6.17,27.27,5.75c-4.32-.28-4.45,0-4.38,4.34,0,1.14.33,1.62,1.55,1.69,4.64.31,9.28.71,13.92,1.08C45,13.4,51.53,14,58.12,14.47c5.21.41,10.43.74,15.64,1.15,6.24.5,12.48,1.06,18.72,1.6.93.08,1.44-.23,1.38-1.24C93.84,15.52,93.86,15.06,93.86,14.6Z"/><path class="cls-1" d="M121.46,108.29c-1.61,0-3.22,0-4.83,0-3.44-.1-5.44-2.12-5.48-5.55,0-2.52,0-5.06,0-7.58a5,5,0,0,1,5.16-5.3c3.39-.08,6.79-.08,10.18,0a5,5,0,0,1,5.22,5.25c.06,2.59.05,5.18,0,7.76a5.13,5.13,0,0,1-5.26,5.42C124.79,108.35,123.12,108.29,121.46,108.29Zm-.15-5.7c1.09,0,2.19,0,3.28,0s1.47-.37,1.44-1.42c0-1.44,0-2.88,0-4.32,0-1-.4-1.35-1.35-1.33-1.73,0-3.45,0-5.18,0-2.65,0-2.65,0-2.65,2.62C116.84,102.59,116.84,102.59,121.31,102.59Z"/><path class="cls-1" d="M121.37,132.15c-1.72,0-3.45,0-5.17,0a5,5,0,0,1-5-5.06c-.07-2.64,0-5.29,0-7.93,0-3.12,1.76-5.17,4.9-5.35a95.13,95.13,0,0,1,10.68,0c3.2.17,4.94,2.24,5,5.47q0,3.7,0,7.41c-.05,3.42-2.09,5.43-5.52,5.49-1.61,0-3.22,0-4.83,0Zm.07-12.76c-4.6,0-4.6,0-4.59,4.6,0,.28,0,.57,0,.85-.11,1.17.38,1.67,1.58,1.63,1.72-.06,3.44,0,5.15,0,2.44,0,2.44,0,2.45-2.46C126,119.39,126,119.39,121.44,119.39Z"/><path class="cls-1" d="M145.63,89.82c1.55,0,3.11,0,4.66,0,3.37.06,5.41,2,5.56,5.32q.17,3.88,0,7.77a5.14,5.14,0,0,1-5.38,5.35c-3.28.09-6.57.08-9.85,0s-5.28-2.16-5.3-5.51c0-2.53,0-5.06,0-7.6a5,5,0,0,1,5.13-5.32c1.72-.06,3.45,0,5.18,0Zm-.06,12.77c4.62,0,4.62,0,4.62-4.58a5.3,5.3,0,0,1,0-.69c.16-1.31-.34-1.89-1.73-1.81-1.66.1-3.33,0-5,0-2.5,0-2.5,0-2.51,2.44C140.94,102.59,140.94,102.59,145.57,102.59Z"/><path class="cls-1" d="M145.47,132.16c-1.61,0-3.23,0-4.84,0a5,5,0,0,1-5.3-5.3c0-2.53,0-5.07,0-7.6,0-3.33,1.76-5.33,5.12-5.49s6.79-.14,10.18,0c3.19.13,5.1,2.12,5.23,5.31.11,2.59.11,5.19,0,7.77-.15,3.39-2.18,5.27-5.55,5.33C148.69,132.18,147.08,132.16,145.47,132.16Zm.16-12.77c-1,0-2.06,0-3.09,0s-1.62.34-1.58,1.48c0,1.37,0,2.75,0,4.13,0,1.13.53,1.5,1.59,1.47,1.72,0,3.44,0,5.16,0,2.47,0,2.47,0,2.48-2.42C150.2,119.39,150.2,119.39,145.63,119.39Z"/><path class="cls-1" d="M38.4,106.38c3.73,0,7.47,0,11.21,0,3.46,0,5.42,2,5.44,5.48,0,2.07,0,4.13,0,6.2,0,3.45-1.9,5.66-5.31,5.71q-11.37.17-22.76,0c-3.43,0-5.32-2.2-5.34-5.66,0-2.24,0-4.48,0-6.72a4.86,4.86,0,0,1,5-5C30.58,106.35,34.49,106.38,38.4,106.38Zm-.17,11.75h7.42c4,0,3.92,0,4-4,0-1.73-.64-2.14-2.23-2.11-5.35.07-10.7,0-16,0-5,0-4.19-.73-4.32,4.45,0,1.27.39,1.73,1.68,1.7C31.89,118.08,35.06,118.13,38.23,118.13Z"/><path class="cls-1" d="M83.78,97.28c-1.72,0-3.45,0-5.17,0a4.61,4.61,0,0,1-4.75-4.66c-.08-2.65-.07-5.29,0-7.94a4.67,4.67,0,0,1,4.65-4.81q5.27-.18,10.53,0a4.68,4.68,0,0,1,4.68,4.79c.07,2.65.08,5.3,0,7.94a4.63,4.63,0,0,1-4.91,4.68C87.12,97.3,85.45,97.28,83.78,97.28Zm0-11.76h0c-1,0-2,0-2.92,0-1.13,0-1.51.64-1.28,1.52.4,1.51-1.16,3.47,1,4.54a.46.46,0,0,0,.17,0h6c.63,0,1.19-.2,1.18-.94,0-1.59.6-3.43-.28-4.71-.73-1.06-2.47-.25-3.76-.42Z"/><path class="cls-1" d="M57.68,50.64h-5c-2.93,0-4.84-1.68-5-4.58a73,73,0,0,1,0-8.1,4.65,4.65,0,0,1,4.78-4.7c3.39-.14,6.79-.14,10.17,0,3.22.13,4.84,2,4.86,5.26q0,3.45,0,6.9c0,3.49-1.71,5.21-5.15,5.23Zm0-11.75c-1,0-2,0-2.92,0s-1.61.2-1.4,1.21c.34,1.62-1,3.54.85,4.86.2.14.56.07.84.07,1.66,0,3.33,0,5,0,1.31,0,1.87-.45,1.85-1.8C61.79,38,62.4,39,57.67,38.89Z"/><path class="cls-1" d="M57.64,56.63c1.78,0,3.56,0,5.34,0a4.44,4.44,0,0,1,4.49,4.51c.06,2.64,0,5.29,0,7.93,0,2.89-1.74,4.84-4.64,5-3.44.14-6.9.13-10.34,0a4.75,4.75,0,0,1-4.84-4.85c-.13-2.58-.12-5.17,0-7.76.13-3.06,2.05-4.77,5.16-4.8,1.61,0,3.22,0,4.83,0Zm-.13,11.76c4.94-.14,4.3,1,4.35-4.58,0-1.11-.49-1.56-1.57-1.54-1.73,0-3.46.06-5.18,0-1.33-.06-1.85.41-1.82,1.79C53.43,69.25,52.58,68.27,57.51,68.39Z"/><path class="cls-1" d="M57.61,97.28c-1.61,0-3.22,0-4.83,0-3,0-5-1.75-5.12-4.68-.13-2.64-.13-5.29,0-7.93a4.8,4.8,0,0,1,5-4.83q4.92-.12,9.83,0c3.16.07,4.94,2,5,5.16,0,2.48,0,5,0,7.42a4.56,4.56,0,0,1-4.87,4.85C61,97.3,59.28,97.28,57.61,97.28Zm0-11.76c-5,.12-4.19-.92-4.27,4.42,0,.17,0,.35,0,.52,0,.8.42,1.13,1.18,1.13h6c.84,0,1.2-.4,1.3-1.24.57-4.53.33-4.83-4.09-4.83Z"/><path class="cls-1" d="M83.82,56.63c1.66,0,3.33,0,5,0a4.58,4.58,0,0,1,4.87,4.53c.12,2.76.11,5.52,0,8.28a4.73,4.73,0,0,1-4.88,4.61c-3.39.12-6.78.11-10.17,0a4.79,4.79,0,0,1-4.8-5c0-2.52,0-5,0-7.58a4.6,4.6,0,0,1,4.79-4.78C80.37,56.6,82.09,56.63,83.82,56.63Zm-.07,5.64c-4.86.09-4.15-.72-4.22,4.36,0,.11,0,.23,0,.34-.08,1,.4,1.45,1.42,1.42,1.84,0,3.68-.06,5.52,0,1.25,0,1.58-.52,1.56-1.65C87.94,61.49,88.7,62.37,83.75,62.27Z"/><path class="cls-1" d="M83.63,50.64c-1.72,0-3.45,0-5.17,0a4.51,4.51,0,0,1-4.59-4.43c-.1-2.76-.09-5.52,0-8.27a4.67,4.67,0,0,1,4.8-4.67c3.39-.14,6.79-.14,10.17,0,3,.12,4.84,2.11,4.89,5.14q.06,3.61,0,7.24c0,3.16-1.92,5-5.09,5ZM83.72,45c5-.08,4.23.74,4.3-4.46,0-.12,0-.23,0-.35.06-1-.38-1.35-1.34-1.33-1.72,0-3.45.08-5.17,0-1.48-.09-2.05.37-2,1.93C79.65,45.65,78.91,45,83.72,45Z"/><path class="cls-1" d="M31.49,50.64c-1.78,0-3.57,0-5.35,0a4.36,4.36,0,0,1-4.48-4.46c-.06-2.81-.06-5.63,0-8.44a4.08,4.08,0,0,1,3.55-4.24,51.11,51.11,0,0,1,12.36-.06,4,4,0,0,1,3.69,3.77,34.75,34.75,0,0,1,0,9.61,4.31,4.31,0,0,1-4.57,3.82C34.94,50.66,33.21,50.64,31.49,50.64ZM31.38,45c5.2-.1,4.34.83,4.45-4.62,0-1.1-.35-1.57-1.49-1.53-1.83.06-3.67.08-5.5,0-1.32-.06-1.83.37-1.79,1.76C27.19,45.73,26.32,44.94,31.38,45Z"/><path class="cls-1" d="M31.42,74.09c-1.55,0-3.11,0-4.66,0-3.31-.1-5.1-1.9-5.12-5.18,0-2.58,0-5.17,0-7.75a4.38,4.38,0,0,1,4.46-4.5c3.56-.06,7.13,0,10.69,0a4.31,4.31,0,0,1,4.43,3.79,33.94,33.94,0,0,1,.08,9.28c-.31,2.77-2.07,4.23-4.89,4.36-1.67.07-3.34,0-5,0Zm-.11-5.7c5.33-.14,4.39,1,4.52-4.49,0-1.18-.4-1.67-1.59-1.64-1.83.05-3.67.06-5.5,0-1.25,0-1.72.44-1.69,1.71C27.19,69.29,26.3,68.27,31.31,68.39Z"/><path class="cls-1" d="M31.43,97.27c-1.66,0-3.33,0-5,0a4.48,4.48,0,0,1-4.78-4.72c0-2.59,0-5.17,0-7.76,0-2.92,1.73-4.83,4.63-4.93,3.44-.12,6.9-.11,10.34,0A4.5,4.5,0,0,1,41.29,84a33.18,33.18,0,0,1-.07,9.44,4.37,4.37,0,0,1-4.44,3.78C35,97.31,33.21,97.27,31.43,97.27Zm0-11.75c-5.2.15-4.28-1-4.4,4.65,0,1,.41,1.46,1.43,1.44,2,0,3.91,0,5.87,0,1,0,1.48-.34,1.46-1.4C35.72,84.45,36.62,85.67,31.46,85.52Z"/></g></g></svg>