<svg xmlns="http://www.w3.org/2000/svg" viewBox="0 0 152.52 176.52"><defs><style>.cls-1{fill:#575656;}</style></defs><g id="Capa_2" data-name="Capa 2"><g id="Capa_1-2" data-name="Capa 1"><path class="cls-1" d="M76.23,176.51q-29.63,0-59.26,0c-10.18,0-17-6.75-17-16.88q0-39.75,0-79.5A16,16,0,0,1,12.69,64.35a20.41,20.41,0,0,1,5.23-.2c1.58.07,2.07-.52,2-2.05a74,74,0,0,1,1.36-17.88A56.09,56.09,0,0,1,67.72.69C97.19-4,125.61,15.77,131.4,45a75.63,75.63,0,0,1,1.21,15.1c0,4.67-.55,4,3.92,4a15.28,15.28,0,0,1,11.68,5,14.92,14.92,0,0,1,4.28,10.51q.06,40.61,0,81.19A15.84,15.84,0,0,1,136.6,176.5Q106.42,176.56,76.23,176.51Zm.22-103.94H17c-5.8,0-8.53,2.71-8.53,8.45v78.56c0,5.5,2.93,8.45,8.42,8.45H135.59c5.5,0,8.44-2.93,8.44-8.43V81c0-5.75-2.73-8.46-8.52-8.47Zm39.93-8.45c2.07,0,4.13,0,6.19,0,1.1,0,1.58-.35,1.58-1.51a79.92,79.92,0,0,0-.87-14.75c-4.53-25-27.47-41.86-52-39.06-16.21,1.85-28.37,10-36.65,24-5.49,9.27-6.57,19.51-6.3,30,0,1.31.83,1.32,1.76,1.31,4,0,8-.05,12,0,1.42,0,1.84-.52,1.82-1.87a70.28,70.28,0,0,1,.37-10.66A32.27,32.27,0,0,1,107.68,49c1,4.37,1,8.8.89,13.24,0,1.34.38,1.94,1.81,1.87C112.38,64.05,114.38,64.12,116.38,64.12Zm-40.18,0c7.37,0,14.75,0,22.12,0,1,0,1.83-.06,1.83-1.45a68,68,0,0,0-.45-10.29C98.1,41.84,88.38,33.05,77.78,32.5a23.88,23.88,0,0,0-24.31,17c-1.14,4-1,8.14-1.12,12.26,0,1.77.43,2.39,2.29,2.36C61.82,64.06,69,64.12,76.2,64.12Z"/><path class="cls-1" d="M88.39,133.83c0,2.18,0,4.37,0,6.56a12.13,12.13,0,1,1-24.26-.08c0-4.75,0-9.5,0-14.25A3.12,3.12,0,0,0,63,123.49c-6.21-5.73-8.45-12.76-6.07-20.89S65,89.69,73.31,88.26a20.21,20.21,0,0,1,16.46,35,3.67,3.67,0,0,0-1.4,3.21C88.45,129,88.39,131.39,88.39,133.83Zm-15.81-2.39h0c0,2.87,0,5.74,0,8.61a3.6,3.6,0,0,0,1.25,3,3.44,3.44,0,0,0,3.83.65,3.6,3.6,0,0,0,2.27-3.55c0-5.43.06-10.86,0-16.29a6.38,6.38,0,0,1,3-6,11.5,11.5,0,0,0,3.76-15.07,11.64,11.64,0,0,0-14.37-5.6A11.08,11.08,0,0,0,64.78,106c-.86,4.85.68,9,4.78,11.75a6.33,6.33,0,0,1,3,6C72.51,126.32,72.58,128.88,72.58,131.44Z"/></g></g></svg>