<svg xmlns="http://www.w3.org/2000/svg" viewBox="0 0 134.49 134.84"><defs><style>.cls-1{fill:#575656;}</style></defs><g id="Capa_2" data-name="Capa 2"><g id="Capa_1-2" data-name="Capa 1"><path class="cls-1" d="M29.62,0c3.48.88,6.18,3,8.66,5.48,5,5.06,10,10,15,15.08a20.56,20.56,0,0,1,3.23,4,12.62,12.62,0,0,1-1.09,14.84,112.4,112.4,0,0,1-10.3,10.52,2.12,2.12,0,0,0-.5,3A76.5,76.5,0,0,0,56.56,69.55,102.36,102.36,0,0,0,76.45,86.87c2,1.27,4,2.28,6.07,3.41.75.42,1.11,0,1.56-.41,2.85-2.86,5.68-5.73,8.57-8.55a17.72,17.72,0,0,1,5.74-4.09,12.54,12.54,0,0,1,12.88,1.87,18.94,18.94,0,0,1,2.07,1.83q8.2,8.17,16.38,16.37c3,3,4.92,6.53,4.76,11-.15,4-2.13,7.17-4.79,9.94-3.36,3.52-6.8,7-10.25,10.39a21.12,21.12,0,0,1-14.91,6.21c-8.83.2-17-2.32-25-5.77a138.54,138.54,0,0,1-36.28-23A152.7,152.7,0,0,1,17.41,76.68a117.31,117.31,0,0,1-14.8-29.8,48.66,48.66,0,0,1-2.54-18A20.09,20.09,0,0,1,5.26,16.1a182.2,182.2,0,0,1,13.17-13,15.24,15.24,0,0,1,6.19-3Zm73.17,127.82c5.24,0,9.25-1.53,12.44-5,1.9-2.07,3.83-4.1,5.83-6.07,1.44-1.41,2.92-2.8,4.23-4.33,2.83-3.3,2.8-6.39-.23-9.47q-8.7-8.86-17.59-17.57c-2.54-2.5-5.66-2.49-8.39-.16-.63.54-1.22,1.13-1.81,1.71C94.19,90,91.15,93.11,88,96.15c-2.33,2.28-4.58,2.76-7.29,1.39a82.87,82.87,0,0,1-7.83-4.31A108.67,108.67,0,0,1,50.59,73.74c-5.24-5.94-10-12.24-13.24-19.53-1.57-3.5-1.24-5.47,1.48-8.15,3.32-3.26,6.67-6.48,9.9-9.82,3.37-3.49,3.39-6.56,0-10C43.16,20.54,37.48,14.93,31.83,9.3a7.09,7.09,0,0,0-3.72-2.12c-2.6-.46-4.59.68-6.35,2.43-3.29,3.28-6.59,6.56-9.86,9.87a15.35,15.35,0,0,0-3.74,5.66C6.69,29.33,7,33.61,7.76,37.85a74.56,74.56,0,0,0,6.35,18.61A138.73,138.73,0,0,0,50,102.36a127.32,127.32,0,0,0,35.41,21.42A54.06,54.06,0,0,0,102.79,127.82Z"/></g></g></svg>