<svg xmlns="http://www.w3.org/2000/svg" viewBox="0 0 127.48 161.3"><defs><style>.cls-1{fill:#575656;}</style></defs><g id="Capa_2" data-name="Capa 2"><g id="Capa_1-2" data-name="Capa 1"><path class="cls-1" d="M62.17,161.3a61.75,61.75,0,0,1-6-5.77c-11.42-11.42-22.55-23.11-32.28-36-8.81-11.7-16.43-24.06-20.8-38.18A64.29,64.29,0,0,1,.21,56.8c1-11.49,5.41-21.66,12.43-30.74C20.45,16,29.94,8,42.14,3.92,66-4,87.73,0,106.57,17a62.57,62.57,0,0,1,18.56,28.69c3.81,12.65,2.73,25.15-1.36,37.53-3.92,11.87-10.2,22.49-17.46,32.57-11,15.3-24,28.79-37.31,42.06a29,29,0,0,1-3.68,3.42Zm1-153.41A70.45,70.45,0,0,0,53.1,9C38.74,11.88,27.57,19.68,18.75,31.15c-7,9.14-10.9,19.42-10.85,31a59.71,59.71,0,0,0,3.59,19.37c4,11.55,10.34,21.85,17.57,31.63C39.15,126.8,50.89,139,62.82,151c.77.78,1.23.64,1.91-.06,3.63-3.78,7.33-7.49,11-11.27a277.41,277.41,0,0,0,21.09-24.34c7.7-10.14,14.52-20.8,18.85-32.87,3.62-10.08,5.13-20.36,2.79-31-2-8.93-6.34-16.57-12.23-23.44C95,15,80.88,8.24,63.22,7.89Z"/><path class="cls-1" d="M63.69,94.21a27.92,27.92,0,1,1,28-27.84A27.8,27.8,0,0,1,63.69,94.21Zm0-47.93a20.22,20.22,0,0,0-20,20.06c0,10.81,9.13,20,20,20a20,20,0,1,0,0-40Z"/></g></g></svg>