<svg xmlns="http://www.w3.org/2000/svg" viewBox="0 0 176.2 176.17"><defs><style>.cls-1{fill:#b5b5b5;}</style></defs><g id="Capa_2" data-name="Capa 2"><g id="Capa_1-2" data-name="Capa 1"><path class="cls-1" d="M63.92,0A59.74,59.74,0,0,1,81,4.43c19.72,9,31.65,24.09,34.93,45.58,2.4,15.68-1.51,30-10.78,42.8-.64.89-.8,1.48.09,2.31,1.79,1.68,3.52,3.44,5.22,5.22a1.49,1.49,0,0,0,2.08.29,6.94,6.94,0,0,1,8.64,1.39q26.4,26.36,52.73,52.73a7,7,0,0,1,0,10.44q-4.25,4.37-8.62,8.63c-3.2,3.14-7.31,3.13-10.56,0-2.39-2.31-4.71-4.69-7.06-7q-22.29-22.31-44.61-44.57c-3.07-3-4.39-6.23-2.12-10.26.33-.59.08-1-.31-1.35-1.9-1.9-3.83-3.78-5.7-5.72-.84-.88-1.41-.26-2,.21a56.82,56.82,0,0,1-16.24,8.43A58.4,58.4,0,0,1,.94,69.66c-.37-1.79-.63-3.6-.94-5.4v-12c.19-1.13.35-2.25.56-3.37C4.49,27.53,16.5,12.64,36.35,4A62.55,62.55,0,0,1,52.24,0ZM58.21,14.06A43.8,43.8,0,0,0,14,58.21c0,26,21.16,44,44,44.13a44.36,44.36,0,0,0,44.4-44.05C102.42,34.07,82.62,13.82,58.21,14.06Z"/></g></g></svg>