<svg xmlns="http://www.w3.org/2000/svg" viewBox="0 0 12.5 15.82"><defs><style>.cls-1{fill:#575656;}</style></defs><g id="Capa_2" data-name="Capa 2"><g id="Capa_1-2" data-name="Capa 1"><path class="cls-1" d="M6.1,15.82a5.3,5.3,0,0,1-.59-.57,34.26,34.26,0,0,1-3.17-3.53A12.43,12.43,0,0,1,.3,8,6.29,6.29,0,0,1,0,5.57a5.56,5.56,0,0,1,1.22-3A6.17,6.17,0,0,1,4.13.38a6,6,0,0,1,6.32,1.29,6.05,6.05,0,0,1,1.82,2.81,5.94,5.94,0,0,1-.13,3.68,12,12,0,0,1-1.71,3.2,34.11,34.11,0,0,1-3.66,4.12,3.82,3.82,0,0,1-.36.34Zm.1-15a9.36,9.36,0,0,0-1,.11A5.52,5.52,0,0,0,1.84,3.05a4.83,4.83,0,0,0-1.06,3A5.56,5.56,0,0,0,1.13,8,11.54,11.54,0,0,0,2.85,11.1a34.26,34.26,0,0,0,3.31,3.71c.08.08.12.06.19,0,.35-.37.72-.73,1.07-1.1a27.7,27.7,0,0,0,2.07-2.39,11.88,11.88,0,0,0,1.85-3.22,5.45,5.45,0,0,0,.28-3,5.36,5.36,0,0,0-1.2-2.3A5.47,5.47,0,0,0,6.2.77Z"/><path class="cls-1" d="M6.25,9.24A2.74,2.74,0,1,1,9,6.51,2.73,2.73,0,0,1,6.25,9.24Zm0-4.7a2,2,0,1,0,0,3.92,2,2,0,1,0,0-3.92Z"/></g></g></svg>