<svg xmlns="http://www.w3.org/2000/svg" viewBox="0 0 67.8 61.01"><defs><style>.cls-1{fill:#e9521d;}</style></defs><g id="Capa_2" data-name="Capa 2"><g id="Capa_1-2" data-name="Capa 1"><path class="cls-1" d="M33.9,61H10.45a3.42,3.42,0,0,1-3.7-3.7q0-15.26,0-30.5c0-.27.17-.66-.12-.8s-.51.2-.74.36a3.79,3.79,0,0,1-3,.81,3.33,3.33,0,0,1-2.76-2.8,3.32,3.32,0,0,1,1.54-3.55c3-2,6-4,9-6L31.45.93c1.85-1.24,3-1.24,4.9,0L65.93,20.65a3.5,3.5,0,1,1-3.48,6.06c-.43-.25-.9-.88-1.25-.66s-.15,1-.15,1.48q0,14.88,0,29.78A3.54,3.54,0,0,1,59,60.75a3.39,3.39,0,0,1-1.54.26Zm0-6.92c6.42,0,12.83,0,19.25,0,.75,0,1-.2,1-1q0-15.54,0-31.06a1.5,1.5,0,0,0-.75-1.42Q44,14.44,34.67,8.17a1.18,1.18,0,0,0-1.55,0q-9.33,6.27-18.71,12.48a1.48,1.48,0,0,0-.75,1.42q0,15.48,0,31c0,1,0,1,1.05,1Z"/></g></g></svg>