<svg xmlns="http://www.w3.org/2000/svg" viewBox="0 0 67.71 59.3"><defs><style>.cls-1{fill:#edf4f4;}</style></defs><g id="Capa_2" data-name="Capa 2"><g id="Capa_1-2" data-name="Capa 1"><path class="cls-1" d="M0,29a2.36,2.36,0,0,1,2.45-1.51q22.07,0,44.13,0h.84a1.35,1.35,0,0,0-.5-.65q-5-5-10-10a2.46,2.46,0,0,1-.9-2.22,2.16,2.16,0,0,1,3.34-1.48,5.08,5.08,0,0,1,.75.64C44.72,18.39,49.3,23,54,27.59a2.82,2.82,0,0,1,0,4.12c-4.66,4.56-9.24,9.2-13.85,13.81-1.19,1.2-2.51,1.34-3.48.38s-.85-2.29.34-3.48q5-5,9.91-9.9a7.09,7.09,0,0,1,.74-.51,1.53,1.53,0,0,0-1-.2H2.45A2.35,2.35,0,0,1,0,30.31Z"/><path class="cls-1" d="M38.07,0H59.15a8.41,8.41,0,0,1,8.56,8.58V50.74a8.41,8.41,0,0,1-8.58,8.56H17a8.41,8.41,0,0,1-8.56-8.58c0-2.53,0-5.06,0-7.6,0-.68.21-.88.87-.84.83,0,1.67,0,2.51,0s1,0,1,.93c0,2.34,0,4.67,0,7a5.14,5.14,0,0,0,.44,2.32A4.32,4.32,0,0,0,17.45,55c3.28,0,6.56,0,9.84,0H58.48a5.56,5.56,0,0,0,2.32-.39,4.25,4.25,0,0,0,2.58-4.17c0-1,0-2.07,0-3.1V9.26A5.55,5.55,0,0,0,63,6.81a4.32,4.32,0,0,0-4.3-2.48H17.49a4.35,4.35,0,0,0-4.32,2.45,5.29,5.29,0,0,0-.43,2.32q0,3.57,0,7.14c0,.6-.18.81-.79.78-1,0-1.93,0-2.9,0-.43,0-.65-.11-.64-.59,0-2.91-.07-5.82,0-8.72A8.47,8.47,0,0,1,15.22.14,9.86,9.86,0,0,1,16.93,0Z"/></g></g></svg>