<svg xmlns="http://www.w3.org/2000/svg" viewBox="0 0 53.02 63.42"><defs><style>.cls-1{fill:#f4b313;}</style></defs><g id="Capa_2" data-name="Capa 2"><g id="Capa_1-2" data-name="Capa 1"><path class="cls-1" d="M28,0A15.58,15.58,0,0,1,32.8,1.44c4.86,2.61,7.9,6.52,8.52,12.1A15.27,15.27,0,0,1,31.14,29.77a15.47,15.47,0,0,1-18-6.23,15.49,15.49,0,0,1,1-17.91A15.06,15.06,0,0,1,24,.07,2.17,2.17,0,0,0,24.2,0ZM14.63,15.3A11.58,11.58,0,0,0,26.34,26.75,11.75,11.75,0,0,0,37.58,15.07,11.6,11.6,0,0,0,26.08,3.78,11.45,11.45,0,0,0,14.63,15.3Z"/><path class="cls-1" d="M26.51,63.4c-5.34,0-10.68.05-16,0a10.44,10.44,0,0,1-7.74-3.31A9.89,9.89,0,0,1,0,53.53,37,37,0,0,1,1.51,41.07a16.81,16.81,0,0,1,4.05-7.2A11.56,11.56,0,0,1,14,30.54a3.07,3.07,0,0,1,1.68.56c1,.59,1.92,1.2,2.88,1.81A14.45,14.45,0,0,0,27,35.35a14.84,14.84,0,0,0,7.16-2.29c.76-.47,1.53-.92,2.23-1.45a5.66,5.66,0,0,1,4.75-.91,11.88,11.88,0,0,1,8.66,6.43,26.93,26.93,0,0,1,2.74,8.93A42.9,42.9,0,0,1,53,52.15c.1,5.89-3.19,10-8.65,11.05a9.12,9.12,0,0,1-2,.21H26.51Zm1-3.79c4.41-.1,9.9.16,15.38-.12a6.54,6.54,0,0,0,6.21-7.33,44.9,44.9,0,0,0-.34-5.3,24.19,24.19,0,0,0-2.24-7.67A8.25,8.25,0,0,0,41,34.61a3.11,3.11,0,0,0-2.91.5,17,17,0,0,1-2,1.29,18.69,18.69,0,0,1-9.54,2.85,18.27,18.27,0,0,1-7.21-1.51,32.12,32.12,0,0,1-4.92-2.85,1.92,1.92,0,0,0-1.12-.45,7.35,7.35,0,0,0-5,2.16,11.89,11.89,0,0,0-2.65,4.28A31.84,31.84,0,0,0,3.93,53.46a6.16,6.16,0,0,0,4.34,5.67,11.54,11.54,0,0,0,3.6.47C16.73,59.62,21.6,59.61,27.54,59.61Z"/></g></g></svg>