<svg xmlns="http://www.w3.org/2000/svg" viewBox="0 0 70.41 61.01"><defs><style>.cls-1{fill:#39b7b5;}</style></defs><g id="Capa_2" data-name="Capa 2"><g id="Capa_1-2" data-name="Capa 1"><path class="cls-1" d="M0,15a8,8,0,0,1,.86-1.79,4.9,4.9,0,0,1,3.77-2h60.6a4.93,4.93,0,0,1,4.17,1.85,4.55,4.55,0,0,1,1,2.85c0,3.44,0,6.87,0,10.31a4.76,4.76,0,0,1-3.83,4.86c-5.33,1.21-10.67,2.39-16,3.58-2.75.61-5.49,1.23-8.24,1.82-.49.1-.69.3-.67.83,0,1.35,0,2.7,0,4s-.51,2-1.82,2c-3.11.06-6.23.06-9.34,0-1.32,0-1.82-.67-1.83-2s0-2.57,0-3.85c0-.68-.2-.94-.86-1.08q-11.46-2.52-22.9-5.09a8.51,8.51,0,0,1-2.55-.8A5.14,5.14,0,0,1,0,27.34Zm35.25-.38h-30c-1.44,0-1.91.45-1.91,1.87V26c0,1.3.34,1.72,1.6,2l23,5.12c.78.18.78.17.81-.65,0-1.43.59-2,2-2h8.86c1.53,0,2.08.51,2.09,2,0,.57.12.75.75.61,5.64-1.28,11.29-2.53,16.94-3.79,2.12-.47,4.24-.94,6.35-1.44.89-.22,1.31-.64,1.31-1.37q0-5.28,0-10.58a1.27,1.27,0,0,0-1-1.24,2.92,2.92,0,0,0-1-.08ZM35.11,40c.85,0,1.7,0,2.54,0,.46,0,.66-.14.66-.63,0-1.64,0-3.29,0-4.94,0-.45-.19-.59-.61-.59h-5c-.43,0-.62.14-.62.59,0,1.65,0,3.3,0,4.94,0,.49.2.64.65.63C33.51,40,34.31,40,35.11,40Z"/><path class="cls-1" d="M35.21,57.57H63.1c.37,0,.73,0,1.1,0a1.25,1.25,0,0,0,1.18-1,4.19,4.19,0,0,0,.13-1.22V35.48a1.65,1.65,0,0,1,2.13-1.78,1.51,1.51,0,0,1,1.13,1.16A5.07,5.07,0,0,1,68.88,36q0,9.72,0,19.44a6.16,6.16,0,0,1-.48,2.68A4.92,4.92,0,0,1,63.56,61H7.23a6,6,0,0,1-3.72-.95,5,5,0,0,1-2-4.23q0-10.06,0-20.13c0-1.56,1-2.4,2.3-2a1.49,1.49,0,0,1,1,1.32,7.48,7.48,0,0,1,0,.82V55.32a4,4,0,0,0,.08,1,1.33,1.33,0,0,0,1.42,1.21H35.21Z"/><path class="cls-1" d="M22.24,5.65c0-2.19.65-4,2.72-5.09A6.06,6.06,0,0,1,27.83,0c4.9,0,9.8,0,14.7,0,2.19,0,4,.67,5,2.77A7.08,7.08,0,0,1,48,7a1.48,1.48,0,0,1-1.65,1.14A1.5,1.5,0,0,1,44.77,7a12.83,12.83,0,0,1-.13-2,1.31,1.31,0,0,0-1.45-1.45q-8,0-16,0A1.32,1.32,0,0,0,25.72,4.9a12.08,12.08,0,0,1-.11,2A1.53,1.53,0,0,1,24,8.15a1.49,1.49,0,0,1-1.61-1.27C22.3,6.47,22.28,6.06,22.24,5.65Z"/></g></g></svg>