<svg xmlns="http://www.w3.org/2000/svg" viewBox="0 0 158.47 136.88"><defs><style>.cls-1{fill:#575656;}</style></defs><g id="Capa_2" data-name="Capa 2"><g id="Capa_1-2" data-name="Capa 1"><path class="cls-1" d="M0,33.77c.63-.66.58-1.6,1-2.37C3.12,27,6.79,25.19,11.49,25.15c5.21,0,10.41,0,15.62,0H146.55c3.72,0,7,.94,9.49,3.95a10,10,0,0,1,2.39,6.39c0,8,.07,16.09,0,24.13,0,4.72-3.68,8.92-8.6,10Q122.68,75.72,95.5,81.7c-1.41.31-1.9.81-1.83,2.29.14,2.88,0,5.77,0,8.66,0,3.38-1.21,4.59-4.53,4.59q-10,0-20,0c-3.24,0-4.45-1.22-4.47-4.5,0-3-.06-6.09,0-9.13a1.52,1.52,0,0,0-1.43-1.83C51.65,79.22,40,76.6,28.28,74,21.86,72.57,15.44,71.12,9,69.7A10.82,10.82,0,0,1,.29,61.53,2.22,2.22,0,0,0,0,61Zm79.39-1.28H11.93c-3.61,0-4.69,1.07-4.69,4.69q0,10.37,0,20.73c0,3.33.79,4.26,4,5L63,74.46c1.72.39,1.72.41,1.74-1.4,0-3.46,1.2-4.62,4.65-4.62H89.05c3.46,0,4.63,1.16,4.66,4.62,0,1.81,0,1.79,1.74,1.4l51.76-11.57c3.21-.72,4-1.65,4-5q0-10.36,0-20.73a12.68,12.68,0,0,0-.15-1.84,3.08,3.08,0,0,0-2.83-2.79,16.87,16.87,0,0,0-2-.06Zm7,50.35c0-2-.05-3.92,0-5.87,0-1-.29-1.33-1.31-1.32-3.91,0-7.83,0-11.75,0-.88,0-1.29.17-1.27,1.18.05,4,0,8,0,12.07,0,.86.26,1.16,1.14,1.15q6-.06,12.06,0c.92,0,1.14-.34,1.12-1.18C86.34,86.86,86.37,84.85,86.37,82.84Z"/><path class="cls-1" d="M79.18,136.86q-31.95,0-63.89,0c-4.75,0-8.4-1.71-10.62-6a12.12,12.12,0,0,1-1.12-5.7q0-22.44,0-44.87c0-2.82.76-4,2.79-4.5a3.44,3.44,0,0,1,4.43,2.88,12.62,12.62,0,0,1,.06,1.85q0,22.13,0,44.25a8.67,8.67,0,0,0,.17,2.15,3,3,0,0,0,2.7,2.55,19.3,19.3,0,0,0,2.14.18q63.36,0,126.71,0c.67,0,1.34-.08,2-.14a3.07,3.07,0,0,0,3-2.84,11.3,11.3,0,0,0,.12-1.84q0-22.44,0-44.87c0-2.64.9-3.87,3.06-4.27a3.4,3.4,0,0,1,4.05,2.85,13.38,13.38,0,0,1,.17,2q0,22.2,0,44.4c0,4.8-1.63,8.65-6.14,10.89a12.42,12.42,0,0,1-5.71,1.05q-14.78,0-29.55,0Z"/><path class="cls-1" d="M79.22,0c6,0,12.07-.06,18.1,0a10.31,10.31,0,0,1,10.44,8.34,20.61,20.61,0,0,1,.16,6.92C107.74,17,106.17,18,104.3,18A3.33,3.33,0,0,1,100.91,15c-.23-1.64.08-3.29-.25-4.94a3,3,0,0,0-2.72-2.69,15,15,0,0,0-2-.18h-34c-3,.09-4.18,1.26-4.28,4.25,0,1.18,0,2.37-.09,3.55A3.24,3.24,0,0,1,54.48,18c-1.88.17-3.65-.7-3.84-2.35-.47-4.06-.72-8.15,2.14-11.64A10,10,0,0,1,60.66.06C66.85,0,73,0,79.22,0Z"/></g></g></svg>