<svg xmlns="http://www.w3.org/2000/svg" viewBox="0 0 122.04 134.17"><defs><style>.cls-1{fill:#575656;}</style></defs><g id="Capa_2" data-name="Capa 2"><g id="Capa_1-2" data-name="Capa 1"><path class="cls-1" d="M72.37,0a6.83,6.83,0,0,1,4.56,7.3c-.1,2.09,0,4.19,0,6.29a6.24,6.24,0,0,1-5.31,6.46c-1.59.34-1.76.57-1.42,2.21a12.14,12.14,0,0,0,1.49,3.61c1.65,2.88,3.43,5.7,3.8,9.11.28,2.56.07,5.14.13,7.71a12.94,12.94,0,0,1,0,2c-.24,1.83.19,2.87,2.24,3.54,3,1,3.92,3.64,4,6.59,0,1.48,0,3,0,4.45,0,.79.27,1.12,1.08,1.29,3.47.71,4.91,2.42,4.92,6,0,1.28.5,1.52,1.63,1.51a17,17,0,0,1,5.58.41,8.4,8.4,0,0,1,5.89,7.28c.08,1.11.49,1.46,1.49,1.68,10.08,2.25,16.48,8.45,18.94,18.42,3.25,13.17-5.53,26.42-19.08,29.09-1,.19-1.26.55-1.32,1.5a8.34,8.34,0,0,1-8.24,7.75q-42.28,0-84.58,0A8.25,8.25,0,0,1,0,126.06Q0,101.18,0,76.3A8.4,8.4,0,0,1,8.16,68a25.48,25.48,0,0,1,3.27,0c1.28.11,1.88-.27,1.73-1.65a5.38,5.38,0,0,1,.53-2.81,4.9,4.9,0,0,1,4.14-3c1.06-.12,1.38-.59,1.33-1.62-.07-1.52,0-3.05,0-4.58A6.61,6.61,0,0,1,26,47.57c.92,0,1.84,0,2.75,0s1.09-.3,1.08-1.08q0-3.41,0-6.81a17.1,17.1,0,0,1,5-12c1.48-1.54,3.13-2.91,4.71-4.35.42-.39.85-.76,1.23-1.17,1.5-1.64,1.48-1.76-.35-2.87a6,6,0,0,1-3-4.52,49.63,49.63,0,0,1-.12-8.62A6.48,6.48,0,0,1,42,0ZM50.51,73.64H9.27c-2.64,0-3.78,1.07-3.82,3.68s0,5.41,0,8.12a1.25,1.25,0,0,0,1.13,1.44c1.91.45,3.81,1,5.69,1.49s2.86,1.9,2.48,3.41c-.43,1.7-1.92,2.44-3.94,2-1.27-.31-2.53-.66-3.8-1C5.47,92.4,5.44,92.42,5.44,94q0,9,0,17.94c0,4.19,0,8.38,0,12.56,0,3.13,1.13,4.23,4.28,4.25H91.41a4.31,4.31,0,0,0,3-.84,2.13,2.13,0,0,0,.93-2.17c-.23-.78-1.08-.61-1.68-.72a24,24,0,0,1-14.75-8.75,23.63,23.63,0,0,1-5.26-16.7c.08-1.55,0-1.55-1.51-1.14-2.74.72-5.48,1.42-8.22,2.16-1.26.33-2.87.23-3.67,1.14s-.25,2.6-.3,3.93a6.28,6.28,0,0,1-4.71,6,11.51,11.51,0,0,1-3.51.2,6.14,6.14,0,0,1-6.11-6.21c0-.61,0-1.22,0-1.83a1.16,1.16,0,0,0-1-1.38c-1.36-.31-2.7-.7-4-1L30.23,98.78c-1.27-.33-2.43-.85-2.7-2.32-.39-2.22,1.35-3.75,3.66-3.18,4.61,1.15,9.21,2.35,13.8,3.55a1.32,1.32,0,0,0,1.66-.51,7.93,7.93,0,0,1,11.28-1,1.82,1.82,0,0,0,2,.47Q67,93.92,74.09,92.15a2.5,2.5,0,0,0,1.81-1.46A23.9,23.9,0,0,1,94.18,77.17c1.16-.19,1.48-.74.95-1.81-.69-1.41-1.92-1.73-3.38-1.73Q71.13,73.66,50.51,73.64ZM70,44.29V42.85c-.1-9.32.78-7.32-3.83-15.46a12.15,12.15,0,0,1-1.68-6c0-.93-.39-1.19-1.26-1.18-4.63,0-9.25,0-13.88,0a1.51,1.51,0,0,0-1.68,1.24,11,11,0,0,1-3,4.7c-1.66,1.55-3.32,3.09-5,4.61a11.74,11.74,0,0,0-3.92,6.64c-.57,3.11-.28,6.27-.22,9.4,0,1.25,1.19.65,1.87.75s1.13,0,1.12-.87c0-1.39,0-2.79,0-4.18a2.72,2.72,0,0,1,5.37-.37,10.24,10.24,0,0,1,.21,2.07c0,4,0,7.94.06,11.91,0,2.71.76,3.27,3.4,3,.34,0,.69,0,1,0,5.08-.35,10.17-.64,15.25-1.08,3.9-.35,6.09-2.89,6.1-6.8Zm46.36,56.8a18.6,18.6,0,1,0-18.58,18.67A18.52,18.52,0,0,0,116.33,101.09ZM75.74,53.49c-.38.34-.35.76-.44,1.13a11.08,11.08,0,0,1-5.45,7.18c-2.9,1.68-6.1,2-9.33,2.16-4.6.3-9.21.53-13.82.86a6.49,6.49,0,0,1-6.4-2.93,2.73,2.73,0,0,0-2.24-1.31A8,8,0,0,1,30.8,55.4C30,53.33,28.9,52.89,27,53.13c-.3,0-.61,0-.92,0a1.23,1.23,0,0,0-1.34,1.4c0,1.57,0,3.14,0,4.71,0,.83.32,1.1,1.11,1.25,3.6.71,4.92,2.32,4.92,6.06,0,1,.27,1.45,1.39,1.45Q50.51,68,68.82,68c1,0,1.39-.23,1.4-1.31,0-4,1.18-5.41,5-6.21.8-.16,1-.51,1-1.23,0-1.52,0-3.05,0-4.58C76.21,54.27,76.29,53.81,75.74,53.49ZM57.05,14.58c4.28,0,8.56,0,12.84,0,1,0,1.42-.35,1.4-1.37,0-2.14,0-4.28,0-6.42,0-1.09-.52-1.47-1.53-1.47H44.36c-1.12,0-1.53.54-1.51,1.63,0,2,0,3.93,0,5.89,0,1.56.16,1.72,1.75,1.72Zm-2.79,88.14h0c0-.79,0-1.57,0-2.35,0-1.08-.58-1.3-1.5-1.3s-1.64.19-1.62,1.33c0,1.48,0,3,0,4.44-.06,1.2.52,1.46,1.59,1.46s1.64-.32,1.55-1.49C54.22,104.11,54.26,103.41,54.26,102.72ZM22,68c.75,0,1.49,0,2.23,0s1-.24,1-.92-.27-1-1-1c-1.48,0-3,0-4.45,0-.64,0-.95.22-1,.91s.27,1.05,1,1S21.24,68,22,68Zm57,0c.78,0,1.56,0,2.34,0s1-.26.94-.93-.15-1-.86-1c-1.56,0-3.11,0-4.67,0-.69,0-.89.36-.89,1s.28,1,.93.94S78.23,68,79,68Z"/><path class="cls-1" d="M20.88,96.24a2.73,2.73,0,1,1,2.87-2.55A2.63,2.63,0,0,1,20.88,96.24Z"/><path class="cls-1" d="M98,103.83a2.86,2.86,0,0,1-2.09-.65c-2.7-2.28-5.41-4.55-8.08-6.86a2.58,2.58,0,0,1-.93-2.81c.61-2.06,2.81-2.7,4.61-1.28s3.52,2.86,5.2,4.38c.9.82,1.61,1,2.55.1a7.41,7.41,0,0,1,1.89-1.15,2.45,2.45,0,0,1,3.06.75,2.31,2.31,0,0,1,.26,3.13,17.49,17.49,0,0,1-6.11,4.34A.8.8,0,0,1,98,103.83Z"/><path class="cls-1" d="M100.48,87.19c0,2.06-1,3.25-2.75,3.23s-2.76-1.3-2.79-3.28,1.13-3.29,2.77-3.33S100.49,85.11,100.48,87.19Z"/><path class="cls-1" d="M100.48,115.21c0,2-1.11,3.26-2.79,3.23s-2.75-1.38-2.75-3.34,1.21-3.32,2.8-3.31S100.49,113.09,100.48,115.21Z"/><path class="cls-1" d="M83.75,104a3,3,0,0,1-3.31-2.81c0-1.68,1.31-2.78,3.4-2.77s3.29,1.15,3.25,2.79S85.64,104,83.75,104Z"/><path class="cls-1" d="M111.77,104c-1.92,0-3.31-1.15-3.33-2.77s1.26-2.79,3.23-2.8,3.42,1.09,3.41,2.77A3,3,0,0,1,111.77,104Z"/><path class="cls-1" d="M50.14,10.09a2.78,2.78,0,0,1-5.56.05,2.78,2.78,0,1,1,5.56-.05Z"/></g></g></svg>