<svg xmlns="http://www.w3.org/2000/svg" viewBox="0 0 225.83 225.74"><defs><style>.cls-1{fill:#e9521d;}</style></defs><g id="Capa_2" data-name="Capa 2"><g id="Capa_1-2" data-name="Capa 1"><path class="cls-1" d="M119.2,0a56.91,56.91,0,0,1,23.13,7.92c15.15,9.54,24.3,23.11,26.8,40.94,3.78,26.87-12.95,53.09-38.31,61.25-1.75.56-2.53,1.37-2.4,3.26.15,2.19.06,4.4,0,6.6,0,1.23.17,1.75,1.63,1.2A14.58,14.58,0,0,1,145.67,124c1,.9,1.6.76,2.55-.07a14.7,14.7,0,0,1,19.87,0c1.07.94,1.65.89,2.71,0,4.8-4.08,10.25-5,16-2.47s9.09,7.3,9.13,13.64c.15,21.15.06,42.3.07,63.45,0,2.48-1.32,4.48-2.41,6.54a10.37,10.37,0,0,0-1.25,5.26c.08,3.3.07,6.61,0,9.91-.08,4.24-1.4,5.52-5.57,5.52H103.08c-4,0-5.59-1.28-5.37-5.39.18-3.44-1.14-5.68-3.5-8-10.8-10.59-21.44-21.35-32.14-32-5.11-5.12-6.9-11.16-4.8-18.14,3.43-11.39,17.77-15.79,27-8.34,4,3.23,7.36,7.17,11.08,10.71.55.53.94,1.33,1.87,1.41.58-.64.34-1.41.34-2.11,0-16.74,0-33.48.06-50.22,0-2-.65-2.89-2.57-3.6-22.65-8.28-35.77-24.66-38.32-48.41C53.52,31.39,74.75,6.19,102.34.77,103.7.5,105.06.26,106.43,0ZM105.69,133.66q0,21.26,0,42.52c0,1.95-.63,3.41-2.52,4.2s-3.28.06-4.61-1.13c-.65-.59-1.26-1.24-1.88-1.86-5.56-5.55-11.08-11.14-16.7-16.62a9.14,9.14,0,0,0-15.42,7.06c.06,2.95,1.49,5.12,3.48,7.11q17.7,17.66,35.37,35.34c1.21,1.21,2.27,2.43,2.29,4.33,0,3.08.1,3.08,3.21,3.08h72c.37,0,.74,0,1.1,0,1.56.13,2.35-.47,2.22-2.14-.09-1,.07-2.06,0-3.08a18.6,18.6,0,0,1,2.83-12.39,5.56,5.56,0,0,0,.78-3.15q0-30.63,0-61.24c0-4.54-2.91-7.45-7.19-7.43s-7.09,3-7.11,7.54c0,5.73,0,11.46,0,17.19,0,5.92.82,5.24-5.26,5.28-2.85,0-2.9-.06-2.9-3,0-6.46,0-12.92,0-19.38,0-4.54-2.86-7.56-7.06-7.61-4.38,0-7.22,2.89-7.25,7.59,0,5.66,0,11.31,0,17,0,6.21.83,5.34-5.54,5.5-2,0-2.67-.67-2.64-2.68.1-6.61.06-13.22,0-19.83,0-4.21-2.7-7.23-6.51-7.5-4.48-.32-7.72,2.45-7.81,6.95-.13,6.09-.06,12.19-.06,18.28,0,5.46.09,4.7-4.78,4.74-3.3,0-3.31,0-3.31-3.25q0-31.17,0-62.33a17.3,17.3,0,0,0-.44-4.37,7.14,7.14,0,0,0-9.16-4.89c-3.39,1.18-5.07,3.9-5.08,8.38Q105.69,112.74,105.69,133.66ZM73.42,84.27c.34-.43.53-.57.6-.77A41.44,41.44,0,0,1,94.31,60.69c1.5-.77.91-1.41.27-2.34-7.12-10.25-5.35-23.12,4.23-30.94,9-7.31,21.45-6.74,30.11,1.36a22.63,22.63,0,0,1,2.7,29.34c-1.06,1.48-.92,2,.67,2.87a41.4,41.4,0,0,1,19.36,21.44c.23.56.15,1.51,1,1.53.61,0,.8-.78,1.11-1.26A47.66,47.66,0,0,0,161,49.27,46.34,46.34,0,0,0,146.23,21c-10.29-9.62-22.6-13.85-36.67-13a45.91,45.91,0,0,0-27.64,11.2c-13.84,11.91-19.3,27.09-16.73,45.1A45,45,0,0,0,73.42,84.27Zm55.06,11.65c0,1.62,0,3.23,0,4.85,0,1.27.43,1.49,1.61,1.06a48.68,48.68,0,0,0,14.67-8.75,2.48,2.48,0,0,0,.89-2.88c-3-11.75-10.25-19.71-21.56-24a3.18,3.18,0,0,0-2.53.09,22.06,22.06,0,0,1-16.94,0,3.43,3.43,0,0,0-2.74-.08C90.57,70.57,83.4,78.57,80.4,90.32a2.37,2.37,0,0,0,.82,2.7,47.92,47.92,0,0,0,14.25,8.61c1.53.61,2.14.26,2.16-1.44,0-3.81-.11-7.62.24-11.44a15.24,15.24,0,0,1,28.3-6.31C128.63,86.67,128.46,91.3,128.48,95.92ZM113.21,30.49c-7.18-.31-14.74,5.26-14.94,14.88-.15,7.64,6.82,14.38,14.59,14.42,8,0,15-6.45,14.92-14.28C127.75,36,120.35,30.35,113.21,30.49Z" transform="translate(0)"/><path class="cls-1" d="M225.83,103.1a4.86,4.86,0,0,1-4.61,2.38c-14.53,0-29.06,0-43.58,0-2.89,0-4.68-1.38-4.71-4.08-.08-5.56-.52-11.14.65-16.66A25.63,25.63,0,0,1,185.16,68c1.39-.9,1.64-1.37.38-2.7a18.27,18.27,0,0,1-3.31-20.6,18.76,18.76,0,0,1,18.47-11c7.77.56,13.32,4.51,16.3,11.56s1.86,14-3.37,19.85c-1.19,1.35-1.17,1.94.39,2.94,6.56,4.17,10.2,10.34,11.81,17.83Zm-26.5-5.73c5.43,0,10.86,0,16.29,0,1.72,0,2.41-.64,2.33-2.34-.11-2,0-4.11-.15-6.16a17.87,17.87,0,0,0-14.47-16.68c-7.77-1.58-15,1.3-19.53,8.39-2.72,4.25-2.9,9-2.79,13.79.06,3,0,3,2.9,3Zm11-44.62A10.89,10.89,0,0,0,199.45,41.6a11,11,0,0,0,0,22A10.88,10.88,0,0,0,210.36,52.75Z" transform="translate(0)"/><path class="cls-1" d="M26.52,109.38q-10.33,0-20.68,0c-4.46,0-5.83-1.32-5.73-5.75.11-4.91-.53-9.84.42-14.71A25.73,25.73,0,0,1,12.17,71.76c1.41-.93,1.56-1.45.37-2.77C7.28,63.15,6.05,56.38,9,49.17s8.82-11.34,16.65-11.74c7.47-.38,13.4,2.88,17.24,9.38a18,18,0,0,1-2.16,22c-1.39,1.56-1.16,2.07.48,3.17,7.76,5.18,11.55,12.65,12,21.87.15,3.44.07,6.9,0,10.35-.05,3.61-1.64,5.17-5.34,5.19C40.76,109.4,33.64,109.38,26.52,109.38Zm.15-8.17c5.35,0,10.7-.07,16,0,1.86,0,2.47-.63,2.36-2.42-.17-2.7.08-5.4-.39-8.1-1.28-7.3-7.34-13.57-14.47-14.8a18.69,18.69,0,0,0-19.68,8.89C8,89.2,8.2,93.93,8.1,98.68c0,1.88.56,2.6,2.52,2.56C16,101.14,21.32,101.21,26.67,101.21Zm-.16-33.92a10.9,10.9,0,1,0,0-21.79,10.9,10.9,0,0,0,0,21.79Z" transform="translate(0)"/></g></g></svg>