<svg xmlns="http://www.w3.org/2000/svg" viewBox="0 0 260.74 218.94"><defs><style>.cls-1{fill:#f4b313;}</style></defs><g id="Capa_2" data-name="Capa 2"><g id="Capa_1-2" data-name="Capa 1"><path class="cls-1" d="M130.1,218.94H10a9.72,9.72,0,0,1-6.4-17.33c7.87-7,15.7-14.08,23.67-21a8.76,8.76,0,0,0,3.41-7.36q-.18-61.53-.06-123.06c0-6.59,3.89-11.82,9.89-13.13a34.4,34.4,0,0,1,7.25-.57q32.73-.06,65.45,0c2.47,0,3.81-.36,4.44-3.19,1.29-5.85,6.42-9.48,12.53-9.52,6.32,0,11.45,3.51,12.85,9.45.64,2.73,1.87,3.27,4.4,3.26,21.28-.08,42.56,0,63.83,0,2.16,0,4.33.11,6.48.28,7.43.57,12.35,5.9,12.36,13.39,0,40.75.06,81.5-.09,122.24a10.19,10.19,0,0,0,4,8.73c7.84,6.64,15.41,13.6,23.06,20.45,2.56,2.29,4.07,5.12,3.58,8.62-.78,5.58-4.51,8.74-10.2,8.74H130.1Zm.21-44q43.68,0,87.36,0c2.23,0,3.44-.33,3.44-3.07Q221,112,221,52.12c0-4.86-1.48-6.31-6.31-6.31q-35.83,0-71.67,0a6.62,6.62,0,0,0-4.42,1.51,13.22,13.22,0,0,1-16.52,0,6.84,6.84,0,0,0-4.67-1.55q-35.43,0-70.86,0c-5.69,0-6.92,1.26-6.92,7.05V170.76c0,4.2,0,4.21,4.1,4.21Zm120.26,33.67a11.3,11.3,0,0,0-.87-1.12q-12.52-11.15-25-22.3a4.4,4.4,0,0,0-3.27-.91q-91,0-182,0a5.72,5.72,0,0,0-4.1,1.62c-5.63,5.06-11.37,10-17,15.09-2.88,2.62-6.05,4.95-8.59,8a2.28,2.28,0,0,0,2,.49q37.72.09,75.44.35c47.69.39,95.38.2,143.07,0C236.84,209.79,243.55,209.82,250.57,208.64ZM134.08,36.87a3.73,3.73,0,1,0-7.45.09,3.46,3.46,0,0,0,3.91,3.75C132.82,40.63,134.11,39.24,134.08,36.87Z"/><path class="cls-1" d="M155.74,8.5c-1.06,3.46-2,7.26-4,10.57a4,4,0,0,1-5.28,1.48c-2.05-.84-3.27-2.57-2.83-4.72A33.44,33.44,0,0,1,147.43,5.5c1.12-1.91,3.13-2.37,5.24-1.64S155.55,6.18,155.74,8.5Z"/><path class="cls-1" d="M117.15,15.65c0,2.82-1.16,4.26-3.24,5a4,4,0,0,1-5.14-1.83,38.55,38.55,0,0,1-3.7-10.12,4.11,4.11,0,0,1,2.79-4.73c2.06-.83,4.11-.45,5.3,1.41C115.27,8.62,116.13,12.45,117.15,15.65Z"/><path class="cls-1" d="M125.86,8.85c0-1.53-.07-3.06,0-4.57a4.49,4.49,0,0,1,9,.1q.15,4.44,0,8.88a4.23,4.23,0,0,1-4.42,4.4c-2.72,0-4.44-1.63-4.58-4.51-.06-1.43,0-2.87,0-4.3Z"/><path class="cls-1" d="M130.09,162.67H61.94c-3.56,0-5.37-1.6-5.31-4.62a4.11,4.11,0,0,1,3.84-4.42,62.15,62.15,0,0,1,9.45-.28c6,0,11.9-.07,17.85,0,2.11,0,3-.56,3.09-2.89.67-15.26,6.87-27.41,20.4-35.26,1.66-1,1.19-1.42,0-2.4C96.44,100.25,95.8,79.2,110,66.05c8.66-8,19.06-9.6,30-6.19,11.32,3.52,17.9,11.83,20.2,23.29,2.38,11.89-1.38,21.87-10.75,29.61-1.48,1.23-1.3,1.65.24,2.56,13.44,8,19.6,20.15,20.1,35.42.07,2.4.95,2.63,2.85,2.61,7.84,0,15.68,0,23.52,0a25.71,25.71,0,0,1,4.3.34,4.32,4.32,0,0,1,3.63,4.9,4.2,4.2,0,0,1-4.25,4c-5,.09-10.09,0-15.14,0Zm.23-9.34h22.46c8.23,0,8.43,0,7.12-8.12-1.54-9.49-6.39-16.91-14.81-21.83-1.64-1-2.66-1.24-3.72.94-2.23,4.57-6.17,6.55-11.25,6.47s-8.74-2.13-10.88-6.63c-.89-1.87-1.76-1.84-3.3-1-10.28,6-15,15.15-15.72,26.72-.16,2.57.67,3.49,3.32,3.45C112.47,153.25,121.4,153.33,130.32,153.33ZM130.17,110c12.43,0,21.15-8.87,21.21-21.32.05-10.35-6.9-21-21.26-21-11.89,0-21,9-21,21.24A20.79,20.79,0,0,0,130.17,110Z"/><path class="cls-1" d="M71.89,201.61c-3.51,0-7,0-10.53,0-2.86,0-4.55-1.55-4.73-4.1-.2-2.82,1.18-4.69,4.13-4.91a151.85,151.85,0,0,1,22.37,0,4.23,4.23,0,0,1,4.12,4.72,4.29,4.29,0,0,1-4.57,4.29C79.09,201.67,75.49,201.61,71.89,201.61Z"/><path class="cls-1" d="M110.71,201.62c-3.51,0-7,0-10.52,0-2.8,0-4.48-1.66-4.61-4.23s1.21-4.55,4-4.77a153.24,153.24,0,0,1,22.37,0,4.27,4.27,0,0,1,4.25,4.87c-.17,2.62-1.93,4.14-5,4.17C117.73,201.65,114.22,201.62,110.71,201.62Z"/><path class="cls-1" d="M149.89,201.62c-3.51,0-7,0-10.53,0-3,0-4.72-1.62-4.83-4.29s1.27-4.54,4.32-4.76a160.79,160.79,0,0,1,21.84,0c3.11.2,4.67,2.17,4.46,5-.19,2.6-2,4.09-5,4.12C156.73,201.65,153.31,201.62,149.89,201.62Z"/><path class="cls-1" d="M188.84,201.62c-3.51,0-7,0-10.53,0-3,0-4.71-1.62-4.82-4.29s1.26-4.54,4.32-4.76a160.64,160.64,0,0,1,21.83,0c3.12.2,4.67,2.17,4.47,5-.2,2.6-2,4.09-5,4.12C195.68,201.65,192.26,201.62,188.84,201.62Z"/></g></g></svg>