<svg xmlns="http://www.w3.org/2000/svg" viewBox="0 0 213.95 237.01"><defs><style>.cls-1{fill:#575656;}</style></defs><g id="Capa_2" data-name="Capa 2"><g id="Capa_1-2" data-name="Capa 1"><path class="cls-1" d="M40.37,0h7.4c5.63,2.14,8,6.37,8,12.23,0,3.32,0,3.33,3.37,3.33h95.72c3.34,0,3.4,0,3.37-3.33-.05-5.87,2.35-10.09,8-12.23h7.4a12.23,12.23,0,0,1,5.53,3.63c2.19,2.59,2.62,5.63,2.52,8.89-.08,3,.06,3,2.93,3,3.93,0,7.86,0,11.79,0a16.82,16.82,0,0,1,9.95,3.22c5.5,3.91,7.64,9.43,7.64,16V217.91c0,.54,0,1.08,0,1.62-.45,9.83-7.86,17.46-17.12,17.46Q107,237,17.15,237a16.2,16.2,0,0,1-10.77-4.1c-4.7-4-6.38-9.24-6.38-15.23Q0,126.34,0,35c0-.61,0-1.23,0-1.85C.43,24,6.91,16.56,15.76,15.7c4.27-.41,8.62-.12,12.94-.14,3.63,0,3.63,0,3.64-3.74C32.36,5.58,34.59,2.3,40.37,0Zm91.19,65.07h71.7c2.93,0,3-.07,3-3,0-9.56,0-19.12,0-28.68,0-5.4-3.89-10-8.86-10.08-9.79-.18-19.58-.07-29.37-.11-1.62,0-2.18.76-2.14,2.29.06,2.15,0,4.31,0,6.47,0,2.88.8,3.77,3.66,4.41,2.37.53,3.53,2.06,3.23,4.27-.25,1.93-1.71,3.06-3.95,3.07a10.6,10.6,0,0,1-10.23-8.43c-.57-2.59-.35-5.21-.38-7.83,0-4.24,0-4.25-4.12-4.25H44c-.62,0-1.23,0-1.85,0-1.59-.07-2.21.72-2.19,2.25,0,2.24,0,4.48,0,6.71,0,2.82.73,3.58,3.56,4.21,2.18.48,3.55,2.12,3.35,4-.22,2.06-1.91,3.38-4.27,3.34A10.66,10.66,0,0,1,32.37,33.52c-.09-2.62-.1-5.25,0-7.87.06-1.8-.68-2.48-2.45-2.45-3.86.07-7.71,0-11.57,0-6.59.06-10.63,4.13-10.64,10.7q0,13.89,0,27.76c0,3.37,0,3.38,3.32,3.38,11,0,22,0,33.07,0,2.79,0,4.6,1.63,4.56,3.86s-1.79,3.65-4.43,3.79c-.77,0-1.55,0-2.32,0H11.13c-3.43,0-3.44,0-3.44,3.49v127.9c0,7.46,4.08,11.67,11.54,11.67q66,0,132.06,0c6,0,9.15-3.19,9.16-9.15,0-7.24,0-14.49,0-21.74a14.31,14.31,0,0,1,.31-3.44c1.8-7.22,7.7-11.74,15.69-11.82,6.94-.07,13.88,0,20.82,0,6.29,0,9-2.71,9-9V76.69c0-3.93,0-3.93-3.93-3.93H61.49a11.07,11.07,0,0,1-3.67-.26,3.62,3.62,0,0,1-2.74-3.59,3.53,3.53,0,0,1,3-3.63,13.73,13.73,0,0,1,3.21-.19Zm74.32,118.21c-.76.73-1.38,1.29-2,1.88Q188,201.11,172,217.06a19.48,19.48,0,0,1-14.64,6.12Q90.22,223,23,223.14c-5,0-10,.34-14.6-2.39-.09-.06-.28.06-.6.14a9.74,9.74,0,0,0,4.94,7.31,14.16,14.16,0,0,0,7.38,1.52H193.83c.62,0,1.23,0,1.85,0,5.89-.35,10.44-4.14,10.51-9.37.17-12.1,0-24.2,0-36.3C206.22,183.89,206.1,183.75,205.88,183.28Zm-37.82,25.86,31.68-31.69c.17.07,0-.09-.23-.09-8.17,0-16.33-.12-24.49,0a7,7,0,0,0-6.91,7C168,192.81,168.06,201.2,168.06,209.14ZM44,15.56c4.06,0,4.06,0,4.07-3.08,0-3.76-1.24-5.36-4.16-5.34S40,8.66,40,12.4C40,15.55,40,15.56,44,15.56Zm125.82,0c4.15,0,4.16,0,4.15-3.26,0-3.68-1.18-5.2-4-5.16s-4.06,1.59-4.06,5.2C165.89,15.56,165.89,15.56,169.82,15.56Z"/><path class="cls-1" d="M83.53,128.89c2.69,0,5.39,0,8.08,0a7,7,0,0,1,7.14,7c.14,5.54.13,11.09,0,16.63a6.72,6.72,0,0,1-6.25,6.86,98.79,98.79,0,0,1-18.2,0c-3.81-.36-6.16-3.18-6.26-7.1-.13-5.38-.14-10.77,0-16.16.12-4.42,3.15-7.16,7.64-7.22C78.29,128.86,80.91,128.89,83.53,128.89Zm7.58,15.58c0-1.92,0-3.85,0-5.77,0-1.58-.7-2.21-2.23-2.19q-5.53,0-11.07,0c-1.59,0-2.17.76-2.15,2.29,0,3.68,0,7.38,0,11.06,0,1.61.69,2.18,2.23,2.16q5.53-.08,11.07,0c1.62,0,2.2-.72,2.15-2.25C91.07,148,91.11,146.24,91.11,144.47Z"/><path class="cls-1" d="M130.76,128.89c2.54,0,5.08,0,7.62,0,4.35.07,7.39,2.78,7.52,7.1.17,5.45.16,10.93,0,16.39-.11,4.17-2.91,7-7.26,7.15-5.38.21-10.78.22-16.16,0-4.65-.18-7.27-3.14-7.32-7.81,0-5.08-.06-10.16,0-15.24.07-4.72,3-7.54,7.73-7.59C125.53,128.86,128.14,128.89,130.76,128.89ZM130.43,152c1.92,0,3.84,0,5.76,0,1.45,0,2.11-.58,2.1-2.06q-.06-5.64,0-11.3c0-1.43-.59-2.14-2-2.13-3.77,0-7.54,0-11.3,0-1.44,0-2.11.62-2.09,2.09,0,3.76,0,7.53,0,11.3,0,1.63.77,2.16,2.28,2.11C126.89,152,128.66,152,130.43,152Z"/><path class="cls-1" d="M36.28,128.89c2.69,0,5.38,0,8.08,0A7,7,0,0,1,51.59,136c.11,5.46.1,10.92,0,16.39a6.71,6.71,0,0,1-6.13,6.94,97.07,97.07,0,0,1-18.2,0c-3.85-.33-6.23-3.06-6.35-7-.18-5.46-.21-10.93,0-16.39.18-4.46,3.21-7.05,7.75-7.1C31.2,128.86,33.74,128.88,36.28,128.89Zm0,7.63c-1.84,0-3.69,0-5.53,0-1.49,0-2.31.5-2.29,2.13q.06,5.66,0,11.31c0,1.46.62,2.08,2.08,2.07q5.66-.06,11.31,0c1.47,0,2.07-.65,2.06-2.09q0-5.65,0-11.3c0-1.46-.65-2.12-2.09-2.1C40,136.54,38.17,136.52,36.32,136.52Z"/><path class="cls-1" d="M51.63,101.32c0,2.62,0,5.24,0,7.85-.1,4.28-2.93,7.35-7.21,7.47-5.46.15-10.93.16-16.39,0a7,7,0,0,1-7.1-7.09c-.2-5.45-.2-10.93,0-16.38.16-4.45,3.19-7.19,7.68-7.25q7.72-.1,15.47,0c4.56.07,7.48,3,7.57,7.56C51.67,96.09,51.63,98.7,51.63,101.32ZM36.22,93.59c-1.92,0-3.84,0-5.76,0-1.35,0-2,.61-1.95,2q0,5.76,0,11.52c0,1.35.61,2,1.95,2q5.76,0,11.52,0a1.69,1.69,0,0,0,2-2q0-5.76,0-11.52a1.69,1.69,0,0,0-2-2C40.06,93.61,38.14,93.59,36.22,93.59Z"/><path class="cls-1" d="M162.33,101.21c0-2.62-.05-5.24,0-7.85a7.18,7.18,0,0,1,7.45-7.44q7.84-.14,15.7,0c4.44.07,7.45,2.92,7.58,7.35.15,5.3.14,10.62,0,15.93-.11,4.52-3.14,7.4-7.71,7.48-5.08.08-10.16.07-15.24,0-4.8-.07-7.73-3.07-7.79-7.85C162.3,106.29,162.33,103.75,162.33,101.21Zm23.12.28c0-1.85,0-3.69,0-5.53.06-1.62-.5-2.43-2.24-2.4-3.69.07-7.38,0-11.06,0-1.6,0-2.19.7-2.17,2.24,0,3.68.05,7.37,0,11.06,0,1.6.71,2.17,2.25,2.15,3.69,0,7.37,0,11.06,0,1.6,0,2.2-.69,2.15-2.24C185.41,105,185.45,103.25,185.45,101.49Z"/><path class="cls-1" d="M162.33,145.24c0-2.61,0-5.23,0-7.85.1-4.43,3-7.44,7.36-7.53,5.31-.09,10.63-.09,15.93,0a7.16,7.16,0,0,1,7.44,7.25c.16,5.38.16,10.78,0,16.16-.13,4.4-3.16,7.25-7.61,7.33q-7.74.15-15.47,0c-4.67-.08-7.58-3.09-7.65-7.75C162.3,150.32,162.33,147.78,162.33,145.24Zm7.69-.05c0,1.84,0,3.68,0,5.53,0,1.52.55,2.27,2.15,2.24,3.77,0,7.53,0,11.29,0,1.32,0,2-.51,2-1.9q0-5.76,0-11.52c0-1.32-.52-2-1.9-2-3.84,0-7.68,0-11.52,0-1.5,0-2.05.72-2,2.14C170,141.5,170,143.34,170,145.19Z"/><path class="cls-1" d="M83.5,85.9c2.62,0,5.24-.07,7.85,0a7.27,7.27,0,0,1,7.43,7.5c.07,5.23.08,10.46,0,15.7a7.24,7.24,0,0,1-7.39,7.55c-5.3.12-10.62.12-15.92,0A7.24,7.24,0,0,1,68,109.15c-.12-5.23-.11-10.47,0-15.7.1-4.56,3.07-7.43,7.62-7.54C78.27,85.84,80.89,85.9,83.5,85.9ZM83.39,109c1.92,0,3.84,0,5.76,0,1.34,0,2-.6,2-2q0-5.76,0-11.52c0-1.34-.6-2-2-2q-5.76,0-11.52,0c-1.35,0-2,.6-2,2q0,5.76,0,11.52c0,1.35.6,2,1.95,2C79.55,109,81.47,109,83.39,109Z"/><path class="cls-1" d="M130.65,85.89c2.54,0,5.08,0,7.62,0,4.56.11,7.57,3,7.66,7.5q.16,7.84,0,15.7c-.09,4.52-3.09,7.48-7.63,7.56q-7.74.14-15.47,0c-4.65-.08-7.6-3.08-7.66-7.75-.07-5.16-.08-10.32,0-15.47.07-4.52,3.08-7.44,7.62-7.55C125.41,85.85,128,85.89,130.65,85.89Zm7.62,15.43c0-1.92,0-3.84,0-5.76,0-1.34-.57-2-1.93-2q-5.76,0-11.52,0c-1.34,0-2,.58-2,1.94q0,5.76,0,11.52c0,1.33.58,2,1.94,2,3.84,0,7.68,0,11.52,0,1.52,0,2-.77,2-2.16C138.25,105,138.28,103.16,138.27,101.32Z"/><path class="cls-1" d="M83.29,202.31c-2.62,0-5.24,0-7.86,0-4.19,0-7.19-2.56-7.34-6.71-.21-5.7-.22-11.41,0-17.11.17-4.06,3.15-6.56,7.21-6.59q8.1,0,16.19,0c4.15,0,7.12,2.69,7.24,6.82.16,5.54.15,11.1,0,16.65-.11,4.23-3.08,6.9-7.36,6.94C88.69,202.33,86,202.31,83.29,202.31Zm7.81-15.15c0-2,0-4,0-6,0-1.34-.59-2-2-2q-5.77,0-11.54,0c-1.37,0-2,.63-1.94,2,0,3.93,0,7.85,0,11.78,0,1.45.59,2.1,2.07,2.09q5.66-.06,11.32,0c1.48,0,2.09-.65,2.06-2.1C91.08,191,91.11,189.08,91.1,187.16Z"/><path class="cls-1" d="M36.21,202.31H28.58c-4.51,0-7.45-2.45-7.64-6.89-.24-5.53-.24-11.1,0-16.63.19-4.46,3.11-6.88,7.63-6.89,5.24,0,10.48,0,15.72,0,4.37,0,7.25,2.83,7.31,7.22.08,5.32.09,10.64,0,15.95-.06,4.4-3,7.19-7.3,7.24C41.6,202.33,38.91,202.31,36.21,202.31Zm-7.7-15.21c0,1.85,0,3.7,0,5.55-.06,1.62.49,2.42,2.25,2.39,3.69-.07,7.39,0,11.08,0,1.44,0,2.14-.55,2.13-2q0-5.88,0-11.78c0-1.48-.69-2.05-2.13-2-3.69,0-7.39.06-11.08,0-1.76,0-2.31.77-2.25,2.39C28.56,183.41,28.51,185.26,28.51,187.1Z"/><path class="cls-1" d="M130.57,202.31c-2.85,0-5.7,0-8.55,0a6.86,6.86,0,0,1-6.76-6.08,3.68,3.68,0,0,1,2.2-4.18,3.44,3.44,0,0,1,4.64,1.39,3,3,0,0,0,3,1.62c3.62-.06,7.24-.07,10.86,0,1.69,0,2.36-.63,2.33-2.32-.07-3.77-.05-7.54,0-11.32,0-1.55-.57-2.25-2.17-2.23-3.7.06-7.39.06-11.09,0-1.59,0-2.24.64-2.2,2.21a11,11,0,0,1-.23,3,3.56,3.56,0,0,1-3.64,3,3.52,3.52,0,0,1-3.66-3.21,18.92,18.92,0,0,1,.1-6.67,6.73,6.73,0,0,1,7-5.53q8.09-.06,16.17,0c4.27,0,7.24,2.69,7.37,6.94.16,5.47.15,10.94,0,16.41-.12,4.36-3.09,7-7.49,7.06C135.81,202.33,133.19,202.31,130.57,202.31Z"/></g></g></svg>