<svg xmlns="http://www.w3.org/2000/svg" viewBox="0 0 160.31 179.53"><defs><style>.cls-1{fill:#575656;}</style></defs><g id="Capa_2" data-name="Capa 2"><g id="Capa_1-2" data-name="Capa 1"><path class="cls-1" d="M101.31,0a4.2,4.2,0,0,1,2.51,4.6c-.79,4.53,1.31,6.25,5.36,8.12C131.43,23,144.94,40.35,149.77,64.41a66.21,66.21,0,0,1,1,15.33c-.05,1.5.35,2.37,1.84,2.87,1.65.55,3.23,1.35,4.83,2A4.33,4.33,0,0,1,160.31,89c0,6,0,12,0,18,0,3.12-1.43,4.59-4.55,4.76-3.87.21-3.87.21-3.87,4.11,0,1,0,2,0,3a3.88,3.88,0,0,1-4.16,3.82c-3.74,0-7.48,0-11.21,0a1.83,1.83,0,0,0-2.1,1.56,44.18,44.18,0,0,1-4.15,10,2,2,0,0,0,.5,2.84c2.45,2.33,4.82,4.75,7.2,7.17s2.5,4.61,0,7.11q-7.09,7.14-14.25,14.24c-2.47,2.44-4.47,2.42-7,0s-5-4.92-7.43-7.44a1.7,1.7,0,0,0-2.41-.44,47.88,47.88,0,0,1-10.32,4.3,1.76,1.76,0,0,0-1.47,2c.06,3.68,0,7.36,0,11,0,2.79-1.5,4.38-4.3,4.4q-10.6.09-21.2,0c-2.89,0-4.41-1.65-4.46-4.7q-.1-5.27,0-10.51a2,2,0,0,0-1.68-2.38,42.14,42.14,0,0,1-9.82-4.12,1.69,1.69,0,0,0-2.43.34c-2.43,2.52-4.92,5-7.42,7.44s-4.6,2.51-7.09,0q-7.14-7.09-14.24-14.24c-2.46-2.47-2.45-4.47,0-6.95s5-5.07,7.57-7.53a1.58,1.58,0,0,0,.33-2.26,49.58,49.58,0,0,1-4.3-10.32A1.86,1.86,0,0,0,24,122.75c-3.68.06-7.36,0-11,0-2.76,0-4.19-1.45-4.22-4.21,0-1.75,0-3.5,0-5.25,0-1.07-.42-1.46-1.45-1.45a13.68,13.68,0,0,1-4.18-.29,3.71,3.71,0,0,1-2.8-3,19.36,19.36,0,0,1-.25-4C0,99.69.05,94.84,0,90c0-2.83,1-4.82,3.84-5.74,1.32-.43,2.55-1.16,3.88-1.59a2.24,2.24,0,0,0,1.7-2.61A72.52,72.52,0,0,1,12.21,57.4a70,70,0,0,1,23.2-35.09A67.35,67.35,0,0,1,54.57,11.23c1.37-.52,2-1.22,1.85-2.69-.11-1.21,0-2.45,0-3.67A5.12,5.12,0,0,1,58.91,0ZM80.12,104q35,0,70.06,0c1.75,0,2.39-.45,2.31-2.26-.13-3-.07-5.95,0-8.93a2.17,2.17,0,0,0-1.54-2.41c-1.53-.57-3-1.32-4.51-1.91a4.55,4.55,0,0,1-3.21-4.83,82.37,82.37,0,0,0-1.05-17.61c-4.26-21.61-16.36-37.14-36.37-46.43-1.88-.88-1.91-.83-1.91,1.27v50.8c0,3.77-1.38,5.14-5.19,5.15H75.39c-4.73,0-9.46,0-14.19,0-3,0-4.5-1.42-4.77-4.42-.06-.7,0-1.4,0-2.11q0-24.51,0-49c0-2.4-.06-2.44-2.3-1.42A62.52,62.52,0,0,0,18,68a100,100,0,0,0-.62,15.37,4.77,4.77,0,0,1-3.27,5c-1.58.61-3.09,1.39-4.68,2a2.12,2.12,0,0,0-1.54,2.38c.08,2.8,0,5.6,0,8.4s0,2.79,2.71,2.79Zm-47.07,7.9c-5,0-10,0-15.06,0-1.1,0-1.75.2-1.74,1.53S16.84,115,18,115c3.09,0,6.19-.06,9.28,0,3.54.1,4.54.85,5.42,4.27a51.18,51.18,0,0,0,6.09,14.27c1.61,2.6,1.36,4.2-.81,6.4s-4.43,4.5-6.7,6.68c-.92.88-1,1.48-.05,2.42,2.7,2.58,5.33,5.24,7.93,7.93.82.85,1.33.78,2.11,0,2.31-2.4,4.67-4.74,7-7.07,2-2,3.48-2.24,5.8-.82a55.17,55.17,0,0,0,15.46,6.42c2.53.62,3.46,2,3.48,4.55,0,3.27.06,6.54,0,9.81,0,1.48.52,1.93,1.94,1.9,3.44-.07,6.89-.08,10.33,0,1.52,0,2.07-.5,2-2-.08-3.09-.09-6.19,0-9.28s1-4.22,4-5a54.71,54.71,0,0,0,14.81-6.19c2.58-1.55,4-1.26,6.23.91s4.58,4.51,6.8,6.83c.86.9,1.42.85,2.26,0,2.6-2.68,5.26-5.31,7.94-7.91.81-.79,1.07-1.36.11-2.26-2.21-2.09-4.32-4.28-6.46-6.43-2.7-2.7-2.9-4-1-7.24a49.91,49.91,0,0,0,5.64-13.51c1-3.84,2-4.64,6-4.67q4.38,0,8.76,0c1.11,0,1.54-.43,1.57-1.56,0-1.48-.79-1.55-1.9-1.55-9.87,0-19.74,0-29.61,0-1.53,0-2,.6-2.26,1.94a30.69,30.69,0,0,1-34.36,24.49c-12.6-1.78-23.42-11.76-25.73-24.38-.3-1.68-1-2.06-2.53-2C42.75,111.9,37.9,111.86,33.05,111.86ZM96,38.49c0-9.57,0-19.14,0-28.71,0-1.47-.35-2.07-1.95-2.06q-13.92.09-27.83,0c-1.58,0-2,.55-2,2q.06,28.62,0,57.25c0,1.58.54,2,2,1.95q13.83-.08,27.66,0c1.65,0,2.07-.55,2.06-2.12C95.94,57.4,96,48,96,38.49ZM80.29,111.86c-6.89,0-13.77,0-20.66,0-1.43,0-1.88.43-1.47,1.88a27.39,27.39,0,0,0,1.54,4.08c4,8.61,13.42,13.77,23.31,12.77,8.88-.9,17-8.06,19.27-16.82.4-1.55,0-1.93-1.51-1.92C93.94,111.89,87.11,111.86,80.29,111.86Z"/></g></g></svg>