<svg xmlns="http://www.w3.org/2000/svg" viewBox="0 0 212 183.11"><defs><style>.cls-1{fill:#575656;}</style></defs><g id="Capa_2" data-name="Capa 2"><g id="Capa_1-2" data-name="Capa 1"><path class="cls-1" d="M0,45.18C.85,44.29.77,43,1.28,42c2.89-5.86,7.8-8.3,14.09-8.35,7,0,13.93,0,20.9,0H196.06c5,0,9.4,1.25,12.68,5.28A13.42,13.42,0,0,1,212,47.46C212,58.22,212,69,212,79.75c-.06,6.31-4.93,11.93-11.5,13.41q-36.33,8.13-72.69,16.14c-1.89.41-2.54,1.08-2.45,3.06.19,3.86.07,7.73,0,11.59,0,4.51-1.61,6.13-6.06,6.14H92.6c-4.33,0-5.95-1.64-6-6,0-4.07-.08-8.14,0-12.21,0-1.51-.42-2.13-1.91-2.45Q61.27,104.27,37.83,99c-8.59-1.92-17.17-3.86-25.77-5.75C6,91.91,2.06,88.33.39,82.31a3.46,3.46,0,0,0-.39-.7Zm106.2-1.71H16c-4.83,0-6.27,1.42-6.28,6.27q0,13.88,0,27.74c0,4.45,1.07,5.69,5.37,6.65Q49.69,91.86,84.3,99.62c2.3.51,2.3.53,2.32-1.88,0-4.62,1.61-6.18,6.23-6.19h26.29c4.62,0,6.19,1.57,6.23,6.19,0,2.41,0,2.39,2.32,1.88q34.62-7.75,69.24-15.49c4.3-1,5.37-2.21,5.38-6.65q0-13.87,0-27.74a17.14,17.14,0,0,0-.2-2.47,4.12,4.12,0,0,0-3.79-3.72,21.92,21.92,0,0,0-2.69-.08Zm9.35,67.35c0-2.62-.07-5.24,0-7.86,0-1.36-.39-1.77-1.74-1.76-5.24.07-10.48,0-15.72,0-1.18,0-1.73.22-1.71,1.58.07,5.38.06,10.76,0,16.13,0,1.17.34,1.56,1.52,1.55,5.38,0,10.76-.06,16.14,0,1.22,0,1.51-.46,1.49-1.58C115.51,116.2,115.55,113.51,115.55,110.82Z"/><path class="cls-1" d="M105.93,183.09q-42.74,0-85.48,0c-6.35,0-11.23-2.28-14.21-8.07a16.43,16.43,0,0,1-1.5-7.62q0-30,0-60c0-3.78,1-5.36,3.74-6a4.6,4.6,0,0,1,5.92,3.86,15.66,15.66,0,0,1,.09,2.47q0,29.61,0,59.2a11.59,11.59,0,0,0,.22,2.87,4,4,0,0,0,3.61,3.42,25.42,25.42,0,0,0,2.88.24H190.71c.89,0,1.78-.11,2.67-.19a4.11,4.11,0,0,0,4-3.79,14.51,14.51,0,0,0,.16-2.47q0-30,0-60c0-3.53,1.2-5.18,4.1-5.72a4.55,4.55,0,0,1,5.41,3.82,17.08,17.08,0,0,1,.23,2.67q0,29.7,0,59.4c0,6.42-2.18,11.57-8.2,14.57a16.58,16.58,0,0,1-7.65,1.4c-13.17,0-26.35,0-39.53,0Z"/><path class="cls-1" d="M106,0c8.07,0,16.14-.08,24.21,0,7.16.09,12.31,4.23,14,11.16a27.42,27.42,0,0,1,.21,9.26c-.23,2.26-2.34,3.66-4.83,3.59A4.46,4.46,0,0,1,135,20.11c-.3-2.18.11-4.4-.33-6.59A4,4,0,0,0,131,9.92a20.09,20.09,0,0,0-2.67-.25q-22.35,0-44.69,0h-.83c-4,.12-5.6,1.69-5.73,5.68,0,1.58,0,3.18-.13,4.75A4.31,4.31,0,0,1,72.89,24c-2.53.23-4.89-.94-5.15-3.14-.62-5.43-1-10.91,2.86-15.58A13.43,13.43,0,0,1,81.15.08C89.43,0,97.7.05,106,.05Z"/></g></g></svg>