<svg xmlns="http://www.w3.org/2000/svg" xmlns:xlink="http://www.w3.org/1999/xlink" viewBox="0 0 373.26 335.24"><defs><style>.cls-1{fill:none;}.cls-2{isolation:isolate;}.cls-3{fill:#55646b;}.cls-4{fill:#e9e8e8;}.cls-5{fill:#d3362d;}.cls-6{fill:#b3b2b2;}.cls-7{fill:#e7e6e6;mix-blend-mode:multiply;}.cls-8{clip-path:url(#clip-path);}.cls-9{fill:#cdcccc;}.cls-10{fill:#676767;}.cls-11{fill:#276876;}.cls-12{fill:#fff;}</style><clipPath id="clip-path" transform="translate(48.39 38.02)"><circle class="cls-1" cx="49.86" cy="81.82" r="41.55"/></clipPath></defs><g class="cls-2"><g id="Capa_2" data-name="Capa 2"><g id="Capa_1-2" data-name="Capa 1"><path class="cls-3" d="M20.74,156.23V44.93H0v111.3c0,5.67,5,9.66,10.7,9.66h.2C16.57,165.89,20.74,161.9,20.74,156.23Z" transform="translate(48.39 38.02)"/><path class="cls-4" d="M186.63,0V156.24c0,5.66-5,9.65-10.7,9.65h-.2c-4.7,0-8.37-2.74-9.47-6.91a9.8,9.8,0,0,1-.37-2.74V0Z" transform="translate(48.39 38.02)"/><path class="cls-4" d="M175.73,165.89H10.9c5.67,0,9.84-4,9.84-9.65V0H165.89V156.24a9.8,9.8,0,0,0,.37,2.74C167.36,163.15,171,165.89,175.73,165.89Z" transform="translate(48.39 38.02)"/><path class="cls-5" d="M78.89,42.89a4.81,4.81,0,0,1-2.16-.4V40.37a7.72,7.72,0,0,0,2.16.3,2.78,2.78,0,0,0,2.21-.88,3.8,3.8,0,0,0,.75-2.53V15.87h2.48V37.05a6.11,6.11,0,0,1-1.4,4.31A5.2,5.2,0,0,1,78.89,42.89Z" transform="translate(48.39 38.02)"/><path class="cls-5" d="M108.57,26.54c0,3.42-.86,6.11-2.6,8.07a9.1,9.1,0,0,1-7.21,2.94,9.22,9.22,0,0,1-7.29-2.89C89.75,32.74,88.9,30,88.9,26.51s.86-6.18,2.57-8.1a9.32,9.32,0,0,1,7.32-2.88A9.09,9.09,0,0,1,106,18.46Q108.57,21.39,108.57,26.54Zm-17,0q0,4.34,1.85,6.59a6.59,6.59,0,0,0,5.38,2.24,6.48,6.48,0,0,0,5.37-2.24c1.2-1.49,1.81-3.69,1.81-6.59s-.6-5.06-1.81-6.55a6.45,6.45,0,0,0-5.34-2.23A6.62,6.62,0,0,0,93.38,20Q91.54,22.25,91.53,26.54Z" transform="translate(48.39 38.02)"/><path class="cls-5" d="M113.34,15.87h6c2.84,0,4.89.43,6.16,1.27a4.49,4.49,0,0,1,1.9,4,4.62,4.62,0,0,1-1.06,3.13,5.07,5.07,0,0,1-3.09,1.61v.14q4.88.84,4.87,5.12a5.5,5.5,0,0,1-1.94,4.48,8.26,8.26,0,0,1-5.42,1.61h-7.46ZM115.83,25h4.1a6.65,6.65,0,0,0,3.78-.83,3.19,3.19,0,0,0,1.16-2.78,2.82,2.82,0,0,0-1.29-2.6,8.06,8.06,0,0,0-4.1-.8h-3.65Zm0,2.11v8h4.46a6.42,6.42,0,0,0,3.9-1A3.72,3.72,0,0,0,125.5,31a3.34,3.34,0,0,0-1.34-2.93,7.19,7.19,0,0,0-4.08-.93Z" transform="translate(48.39 38.02)"/><rect class="cls-3" x="81.22" y="89.86" width="41.47" height="5.18"/><rect class="cls-6" x="81.22" y="98.5" width="41.47" height="39.75"/><rect class="cls-6" x="81.22" y="145.16" width="41.47" height="51.84"/><rect class="cls-3" x="131.33" y="89.86" width="39.74" height="5.18"/><rect class="cls-3" x="131.33" y="145.16" width="39.74" height="5.18"/><rect class="cls-6" x="131.33" y="98.5" width="39.74" height="39.75"/><rect class="cls-6" x="131.33" y="153.8" width="39.74" height="43.2"/><rect class="cls-3" x="181.45" y="89.86" width="39.75" height="5.18"/><rect class="cls-6" x="181.45" y="98.5" width="39.75" height="39.75"/><rect class="cls-6" x="181.45" y="145.16" width="39.75" height="51.84"/><path class="cls-7" d="M186.63,0V156.24c0,5.66-5,9.65-10.7,9.65H154.18l7.74,7.12-13,14.12-23.08-21.24h-21V0Z" transform="translate(48.39 38.02)"/><g class="cls-8"><path class="cls-3" d="M-6.91,275.85V53.57H-48.39V275.85c0,11.42,8.52,21.38,19.94,21.38H-28C-16.61,297.23-6.91,287.27-6.91,275.85Z" transform="translate(48.39 38.02)"/><path class="cls-9" d="M324.87,275.85V-38H283.4V275.85c0,11.42,9.15,21.38,20.57,21.38h.42C315.81,297.23,324.87,287.27,324.87,275.85Z" transform="translate(48.39 38.02)"/><path class="cls-9" d="M-6.91,52.87v223c0,11.42-9.7,21.38-21.12,21.38H304c-11.42,0-20.57-10-20.57-21.38V-38H-6.91Z" transform="translate(48.39 38.02)"/><path class="cls-10" d="M108.92,47.55a9.86,9.86,0,0,1-4.36-.8V42.48a16.1,16.1,0,0,0,4.36.59,5.54,5.54,0,0,0,4.44-1.77,7.63,7.63,0,0,0,1.51-5.1V-6.88h5V35.79q0,5.6-2.83,8.68T108.92,47.55Z" transform="translate(48.39 38.02)"/><path class="cls-10" d="M168.7,14.6q0,10.35-5.22,16.27t-14.54,5.92q-9.52,0-14.69-5.82t-5.17-16.43q0-10.51,5.18-16.3T149-7.55q9.28,0,14.5,5.89T168.7,14.6Zm-34.32,0q0,8.76,3.73,13.28t10.83,4.52q7.16,0,10.81-4.51T163.4,14.6q0-8.68-3.64-13.18T149-3.07q-7.16,0-10.88,4.52T134.38,14.6Z" transform="translate(48.39 38.02)"/><path class="cls-10" d="M178.31-6.88h12.17q8.57,0,12.4,2.56c2.56,1.72,3.83,4.42,3.83,8.11a9.39,9.39,0,0,1-2.13,6.32,10.34,10.34,0,0,1-6.24,3.23v.29q9.82,1.68,9.82,10.31a11.09,11.09,0,0,1-3.91,9q-3.9,3.24-10.91,3.24h-15Zm5,18.45h8.25q5.31,0,7.63-1.67t2.33-5.61a5.69,5.69,0,0,0-2.59-5.23q-2.59-1.6-8.25-1.61h-7.37Zm0,4.24V31.93h9q5.2,0,7.85-2t2.64-6.32c0-2.67-.9-4.64-2.7-5.89s-4.53-1.89-8.21-1.89Z" transform="translate(48.39 38.02)"/><rect class="cls-3" x="63.94" y="103.68" width="82.95" height="10.37"/><rect class="cls-6" x="63.94" y="120.96" width="82.95" height="81.22"/><rect class="cls-6" x="63.94" y="214.28" width="82.95" height="105.41"/><rect class="cls-3" x="164.17" y="103.68" width="81.22" height="10.37"/><rect class="cls-3" x="164.17" y="214.28" width="81.22" height="12.1"/><rect class="cls-6" x="164.17" y="120.96" width="81.22" height="81.22"/><rect class="cls-6" x="164.17" y="233.29" width="81.22" height="86.4"/><rect class="cls-3" x="266.12" y="103.68" width="81.22" height="10.37"/><rect class="cls-6" x="266.12" y="120.96" width="81.22" height="81.22"/><rect class="cls-6" x="266.12" y="214.28" width="81.22" height="105.41"/></g><polygon class="cls-3" points="145.12 154.3 140.42 159.41 135.38 164.89 126.86 157.06 124.78 155.15 129.83 149.65 134.53 144.55 136.88 146.71 145.12 154.3"/><polygon class="cls-11" points="210.31 211.03 203.93 217.96 197.31 225.15 174.22 203.91 166.71 197 153.23 184.59 133.75 166.67 135.38 164.89 140.42 159.41 145.12 154.3 145.59 153.8 146.75 152.54 148.11 153.8 153.23 158.5 171.08 174.93 181.45 184.47 195.06 197 202.56 203.91 210.31 211.03"/><path class="cls-12" d="M91.09,60.48C90.43,59.31,89.74,58.15,89,57a42.68,42.68,0,0,0-4.08-5.19c-.9-1-1.83-1.93-2.83-2.85A45.69,45.69,0,0,0,42.11,37.86,45,45,0,0,0,20.74,48.61c-1.07,1-2.11,2-3.1,3-.19.21-.38.44-.57.64a45.61,45.61,0,0,0,3.25,63.78l.42.37a45.36,45.36,0,0,0,12.09,7.81,45.85,45.85,0,0,0,27.45,3,44.91,44.91,0,0,0,14-5.39,44.91,44.91,0,0,0,9.78-7.74l.64-.67c.32-.35.64-.71,1-1.08a39.66,39.66,0,0,0,2.82-3.62c.37-.5.72-1,1-1.56a42.8,42.8,0,0,0,3.66-6.91A45.76,45.76,0,0,0,91.09,60.48Zm-5.84,39.75a38.32,38.32,0,0,1-5.81,8.29l-.64.68a35.74,35.74,0,0,1-4.49,4,38,38,0,0,1-15.47,7,38.46,38.46,0,0,1-26-3.92,39,39,0,0,1-7.64-5.46,37.23,37.23,0,0,1-4.45-4.89,38.32,38.32,0,0,1,0-46.69c.51-.69,1.07-1.37,1.64-2l.57-.64A38.09,38.09,0,0,1,43.53,44.91a38.48,38.48,0,0,1,30.69,6.93s.07,0,.09,0a36.34,36.34,0,0,1,2.87,2.39A37.92,37.92,0,0,1,83,61,38.5,38.5,0,0,1,85.25,100.23Z" transform="translate(48.39 38.02)"/><path class="cls-7" d="M161.92,173l-6.38,6.93L92,121.4l-8-7.33-2.65-2.44L78.8,109.2l-56.42-52-5.31-4.89c.19-.2.38-.43.57-.64,1-1.07,2-2.09,3.1-3A45,45,0,0,1,42.11,37.86,45.69,45.69,0,0,1,82.05,49c1,.92,1.93,1.87,2.83,2.85A42.68,42.68,0,0,1,89,57c.78,1.12,1.47,2.28,2.13,3.45a45.76,45.76,0,0,1,2.1,39.75,42.8,42.8,0,0,1-3.66,6.91c-.31.52-.66,1.06-1,1.56l8.24,7.58.46-.5,1.16-1.26,1.37,1.26,5.11,4.7,17.85,16.43,10.37,9.54L146.68,159l7.5,6.91Z" transform="translate(48.39 38.02)"/></g></g></g></svg>