<svg xmlns="http://www.w3.org/2000/svg" xmlns:xlink="http://www.w3.org/1999/xlink" viewBox="0 0 296.63 266.42"><defs><style>.cls-1{fill:none;}.cls-2{isolation:isolate;}.cls-3{fill:#e9e8e8;}.cls-4{fill:#d3362d;}.cls-5{fill:#55646b;}.cls-6{fill:#b3b2b2;}.cls-7{clip-path:url(#clip-path);}.cls-8{fill:#cdcccc;}.cls-9{fill:#676767;}.cls-10{fill:#276876;}.cls-11{fill:#fff;}.cls-12{fill:#e7e6e6;mix-blend-mode:multiply;}</style><clipPath id="clip-path" transform="translate(42.91 30.21)"><circle class="cls-1" cx="35.16" cy="65.02" r="33.02"/></clipPath></defs><g class="cls-2"><g id="Capa_2" data-name="Capa 2"><g id="Capa_1-2" data-name="Capa 1"><path class="cls-3" d="M143.86,0V124.16c0,4.51-4,7.68-8.5,7.68h-.17a7.46,7.46,0,0,1-7.52-5.49,7.83,7.83,0,0,1-.29-2.19V0Z" transform="translate(42.91 30.21)"/><path class="cls-3" d="M135.19,131.84H4.21A7.47,7.47,0,0,0,12,124.16V0H127.38V124.16a7.83,7.83,0,0,0,.29,2.19A7.46,7.46,0,0,0,135.19,131.84Z" transform="translate(42.91 30.21)"/><path class="cls-4" d="M58.24,34.08a3.89,3.89,0,0,1-1.72-.31V32.08a6.11,6.11,0,0,0,1.72.24,2.19,2.19,0,0,0,1.75-.7,3,3,0,0,0,.6-2v-17h2V29.45a4.89,4.89,0,0,1-1.11,3.42A4.16,4.16,0,0,1,58.24,34.08Z" transform="translate(42.91 30.21)"/><path class="cls-4" d="M81.83,21.09a9.31,9.31,0,0,1-2.07,6.41A7.24,7.24,0,0,1,74,29.84a7.35,7.35,0,0,1-5.8-2.29,9.47,9.47,0,0,1-2-6.49,9.28,9.28,0,0,1,2-6.43,7.4,7.4,0,0,1,5.81-2.28,7.24,7.24,0,0,1,5.72,2.32A9.36,9.36,0,0,1,81.83,21.09Zm-13.55,0a8.08,8.08,0,0,0,1.47,5.24A5.23,5.23,0,0,0,74,28.11a5.15,5.15,0,0,0,4.26-1.78,8.18,8.18,0,0,0,1.44-5.24,8.14,8.14,0,0,0-1.43-5.2,5.14,5.14,0,0,0-4.25-1.78,5.26,5.26,0,0,0-4.3,1.79A8,8,0,0,0,68.28,21.09Z" transform="translate(42.91 30.21)"/><path class="cls-4" d="M85.62,12.61h4.8a9.1,9.1,0,0,1,4.89,1,3.58,3.58,0,0,1,1.51,3.2A3.68,3.68,0,0,1,96,19.31a4.06,4.06,0,0,1-2.46,1.28v.12q3.87.66,3.87,4.06a4.36,4.36,0,0,1-1.54,3.56,6.57,6.57,0,0,1-4.31,1.28H85.62Zm2,7.28h3.26a5.3,5.3,0,0,0,3-.66A2.52,2.52,0,0,0,94.78,17a2.24,2.24,0,0,0-1-2.06,6.27,6.27,0,0,0-3.25-.64H87.59Zm0,1.68v6.35h3.55a5.08,5.08,0,0,0,3.1-.79,3,3,0,0,0,1-2.5,2.64,2.64,0,0,0-1.07-2.32A5.66,5.66,0,0,0,91,21.57Z" transform="translate(42.91 30.21)"/><rect class="cls-5" x="64.55" y="71.41" width="32.96" height="4.12"/><rect class="cls-6" x="64.55" y="78.28" width="32.96" height="31.59"/><rect class="cls-6" x="64.55" y="115.36" width="32.96" height="41.2"/><rect class="cls-5" x="104.37" y="71.41" width="31.58" height="4.12"/><rect class="cls-5" x="104.37" y="115.36" width="31.58" height="4.12"/><rect class="cls-6" x="104.37" y="78.28" width="31.58" height="31.59"/><rect class="cls-6" x="104.37" y="122.22" width="31.58" height="34.33"/><rect class="cls-5" x="144.2" y="71.41" width="31.59" height="4.12"/><rect class="cls-6" x="144.2" y="78.28" width="31.59" height="31.59"/><rect class="cls-6" x="144.2" y="115.36" width="31.59" height="41.2"/><g class="cls-7"><path class="cls-5" d="M-9.95,219.22V42.57h-33V219.22c0,9.08,6.77,17,15.84,17h.34C-17.66,236.21-9.95,228.3-9.95,219.22Z" transform="translate(42.91 30.21)"/><path class="cls-8" d="M253.72,219.22V-30.21h-33V219.22c0,9.08,7.28,17,16.35,17h.33C246.52,236.21,253.72,228.3,253.72,219.22Z" transform="translate(42.91 30.21)"/><path class="cls-8" d="M-9.95,42v177.2c0,9.08-7.71,17-16.78,17H237.11c-9.07,0-16.35-7.91-16.35-17V-30.21H-9.95Z" transform="translate(42.91 30.21)"/><path class="cls-9" d="M82.1,37.78a7.83,7.83,0,0,1-3.46-.63V33.76a12.73,12.73,0,0,0,3.46.46,4.39,4.39,0,0,0,3.53-1.4,6.08,6.08,0,0,0,1.2-4.05V-5.47h4V28.44a9.88,9.88,0,0,1-2.24,6.9A8.36,8.36,0,0,1,82.1,37.78Z" transform="translate(42.91 30.21)"/><path class="cls-9" d="M129.61,11.61q0,8.2-4.15,12.92T113.9,29.24q-7.56,0-11.67-4.63t-4.11-13q0-8.35,4.12-13T114-6q7.38,0,11.52,4.68T129.61,11.61Zm-27.28,0q0,6.95,3,10.54t8.6,3.6q5.7,0,8.59-3.59t2.91-10.55q0-6.91-2.89-10.48T114-2.44q-5.69,0-8.65,3.59T102.33,11.61Z" transform="translate(42.91 30.21)"/><path class="cls-9" d="M137.24-5.47h9.68c4.54,0,7.83.68,9.85,2s3,3.51,3,6.44a7.43,7.43,0,0,1-1.7,5,8.16,8.16,0,0,1-5,2.57v.23Q161,12.17,161,19a8.78,8.78,0,0,1-3.11,7.16c-2.06,1.72-5,2.58-8.67,2.58H137.24Zm4,14.66h6.55c2.81,0,4.84-.44,6.07-1.32s1.85-2.37,1.85-4.46a4.53,4.53,0,0,0-2.06-4.16C152.26-1.6,150.08-2,147.08-2h-5.85Zm0,3.38v12.8h7.14q4.14,0,6.24-1.6a5.91,5.91,0,0,0,2.1-5,5.33,5.33,0,0,0-2.15-4.69c-1.43-1-3.6-1.49-6.52-1.49Z" transform="translate(42.91 30.21)"/><rect class="cls-5" x="50.81" y="82.4" width="65.92" height="8.24"/><rect class="cls-6" x="50.81" y="96.13" width="65.92" height="64.55"/><rect class="cls-6" x="50.81" y="170.29" width="65.92" height="83.77"/><rect class="cls-5" x="130.46" y="82.4" width="64.55" height="8.24"/><rect class="cls-5" x="130.46" y="170.29" width="64.55" height="9.61"/><rect class="cls-6" x="130.46" y="96.13" width="64.55" height="64.55"/><rect class="cls-6" x="130.46" y="185.4" width="64.55" height="68.66"/><rect class="cls-5" x="211.49" y="82.4" width="64.55" height="8.24"/><rect class="cls-6" x="211.49" y="96.13" width="64.55" height="64.55"/><rect class="cls-6" x="211.49" y="170.29" width="64.55" height="83.77"/></g><polygon class="cls-5" points="115.33 122.62 111.59 126.69 107.58 131.04 100.81 124.82 99.17 123.3 103.18 118.93 106.91 114.88 108.78 116.59 115.33 122.62"/><polygon class="cls-10" points="167.13 167.71 162.06 173.22 156.81 178.93 138.46 162.05 132.48 156.56 121.77 146.7 106.29 132.46 107.58 131.04 111.59 126.69 115.33 122.62 115.7 122.22 116.62 121.22 117.71 122.22 121.77 125.96 135.96 139.02 144.2 146.6 155.02 156.56 160.98 162.05 167.13 167.71"/><path class="cls-11" d="M67.93,48.07a31.2,31.2,0,0,0-1.69-2.75A35.11,35.11,0,0,0,63,41.2c-.72-.78-1.46-1.54-2.25-2.27A36.31,36.31,0,0,0,29,30.09a35.83,35.83,0,0,0-17,8.54c-.85.76-1.67,1.57-2.46,2.42l-.45.51a36.24,36.24,0,0,0,2.58,50.69l.33.28a36,36,0,0,0,9.61,6.21,36.4,36.4,0,0,0,21.81,2.35,35.65,35.65,0,0,0,11.15-4.28,36,36,0,0,0,7.78-6.16l.51-.53c.26-.28.5-.57.75-.85a31.57,31.57,0,0,0,2.24-2.89,13.14,13.14,0,0,0,.82-1.23,33,33,0,0,0,2.91-5.5A36.35,36.35,0,0,0,67.93,48.07ZM63.29,79.65a30.19,30.19,0,0,1-4.62,6.59l-.5.54a28.82,28.82,0,0,1-3.58,3.16A30.12,30.12,0,0,1,42.3,95.49a30.62,30.62,0,0,1-20.67-3.12A31.17,31.17,0,0,1,15.56,88,29.48,29.48,0,0,1,12,84.14,30.47,30.47,0,0,1,12,47c.41-.55.85-1.09,1.31-1.6l.45-.51A30.45,30.45,0,0,1,54.52,41.2a.12.12,0,0,1,.07,0,24.42,24.42,0,0,1,2.28,1.9,29.52,29.52,0,0,1,4.59,5.33A30.57,30.57,0,0,1,63.29,79.65Z" transform="translate(42.91 30.21)"/><path class="cls-12" d="M124.22,137.5l-5.07,5.5L68.68,96.47l-6.31-5.82-2.1-1.93-2.1-1.94L13.33,45.44,9.11,41.56l.45-.51c.79-.85,1.61-1.66,2.46-2.42a35.83,35.83,0,0,1,17-8.54,36.31,36.31,0,0,1,31.74,8.84c.79.73,1.53,1.49,2.25,2.27a35.11,35.11,0,0,1,3.24,4.12,31.2,31.2,0,0,1,1.69,2.75A36.35,36.35,0,0,1,69.6,79.65a33,33,0,0,1-2.91,5.5,13.14,13.14,0,0,1-.82,1.23l6.55,6,.37-.4.92-1,1.08,1,4.07,3.74,14.19,13.06,8.24,7.58,10.82,10,6,5.49Z" transform="translate(42.91 30.21)"/></g></g></g></svg>