<svg xmlns="http://www.w3.org/2000/svg" viewBox="0 0 132.08 84.36"><defs><style>.cls-1{fill:#575656;}</style></defs><g id="Capa_2" data-name="Capa 2"><g id="Capa_1-2" data-name="Capa 1"><path class="cls-1" d="M0,40.66A114.88,114.88,0,0,1,34.75,9.09,64.11,64.11,0,0,1,59.1.44,54.77,54.77,0,0,1,84.69,3.3a87,87,0,0,1,24.13,13.61A124.65,124.65,0,0,1,130.7,38.82a5.47,5.47,0,0,1,1.37,3,5.23,5.23,0,0,1-1.28,3.68,126.9,126.9,0,0,1-17,17.92,95.73,95.73,0,0,1-24.32,15.8,58.26,58.26,0,0,1-21.79,5.12c-10.53.33-20.27-2.41-29.53-7.2C24.51,70.06,13.3,60.06,3.49,48.37A47.4,47.4,0,0,1,0,43.75ZM66,75.39a36.28,36.28,0,0,0,7.43-.65,60.68,60.68,0,0,0,20.53-8c10.54-6.31,19.39-14.58,27.36-23.85.55-.64.35-1-.09-1.51-2.11-2.5-4.34-4.87-6.64-7.2-7.92-8-16.65-15-26.91-19.87A50.61,50.61,0,0,0,66.46,9a49.08,49.08,0,0,0-21.27,4.9c-13.84,6.36-24.8,16.33-34.62,27.72-.43.49-.26.8.09,1.21,8.78,10.19,18.57,19.2,30.51,25.62C48.9,72.65,57.08,75.32,66,75.39Z"/><path class="cls-1" d="M92.3,42.17C92,56.58,81.07,68.38,66.05,68.44a25.92,25.92,0,0,1-26.3-26.27A25.94,25.94,0,0,1,66,16C80.61,16,92,27.37,92.3,42.17Zm-9.12,0A17.2,17.2,0,1,0,66,59.4,17.15,17.15,0,0,0,83.18,42.22Z"/></g></g></svg>