<svg xmlns="http://www.w3.org/2000/svg" viewBox="0 0 934.08 596.61"><defs><style>.cls-1{fill:#575757;}</style></defs><g id="Capa_2" data-name="Capa 2"><g id="Capa_1-2" data-name="Capa 1"><path class="cls-1" d="M0,289.19C12.77,265.72,31.25,246.61,48.83,227c57.12-63.68,121.35-119,195.66-162C304.05,30.65,367.36,6.76,436.42,1.21,504.7-4.27,570,9.05,632.35,36.65c72.72,32.16,136.26,77.92,194.33,131.78A929.37,929.37,0,0,1,920.58,270c18,22.51,18,34.13,0,56.6-65.34,81.5-140.72,151.74-231.41,204.52-59.73,34.76-123.34,58.7-192.71,64.28-58.66,4.72-115.58-4.49-170.59-25.3-73.65-27.86-138.07-70.7-197.28-122A911.93,911.93,0,0,1,13.46,327.93,131.63,131.63,0,0,1,0,307.41Zm471.49,244c7.75.6,21.08-.91,34.27-2.7,57.48-7.81,110-29.34,159.4-59C739,427,801.32,369.11,857.14,303.87c3.89-4.54,3.38-7.16-.26-11.39-32.75-38-67.75-73.8-106.36-105.92-50-41.62-103.83-76.94-165.14-100-51.15-19.23-103.66-27.76-158.1-20.47-57.49,7.7-110,29.38-159.39,59.06C194,169.61,131.73,227.49,75.91,292.73c-3.89,4.55-3.35,7.17.25,11.42,13.94,16.47,28.73,32.13,43.75,47.6C169,402.35,223,446.84,284.93,481,341.23,512,400.69,532.48,471.49,533.16Z"/><path class="cls-1" d="M652.39,298.72c-2.37,105.17-84,185.48-186.29,185-105.82-.48-185.46-84.15-185-185.85.48-105.62,83.93-185.47,185.85-185C573.1,113.35,650.9,197.45,652.39,298.72Zm-64.16-.27a121.71,121.71,0,0,0-243.42-.75C344.62,365.7,398.72,420,466.6,420A121.27,121.27,0,0,0,588.23,298.45Z"/></g></g></svg>