<svg xmlns="http://www.w3.org/2000/svg" viewBox="0 0 153.53 177.69"><defs><style>.cls-1{fill:#192e4d;}</style></defs><g id="Capa_2" data-name="Capa 2"><g id="Capa_1-2" data-name="Capa 1"><path class="cls-1" d="M76.73,177.68H17.09c-10.25,0-17.08-6.8-17.08-17q0-40,0-80A16.06,16.06,0,0,1,12.78,64.77,20.16,20.16,0,0,1,18,64.58c1.59.06,2.08-.53,2-2.07a74,74,0,0,1,1.38-18A56.44,56.44,0,0,1,68.17.69C97.83-4,126.44,15.87,132.27,45.3a75.82,75.82,0,0,1,1.21,15.2c0,4.7-.55,4.07,4,4a15.35,15.35,0,0,1,11.75,5.06,15.05,15.05,0,0,1,4.31,10.58q.06,40.86,0,81.73a15.93,15.93,0,0,1-16,15.77Q107.12,177.72,76.73,177.68ZM77,73.05H17.13c-5.84,0-8.58,2.73-8.59,8.51v79.07c0,5.54,3,8.51,8.48,8.51H136.49c5.54,0,8.49-2.95,8.49-8.49V81.57c0-5.79-2.74-8.51-8.57-8.52Zm40.19-8.51c2.08,0,4.16,0,6.23,0,1.1,0,1.59-.35,1.59-1.51a80.08,80.08,0,0,0-.88-14.85C119.54,23.05,96.44,6.05,71.79,8.87,55.47,10.73,43.24,18.93,34.9,33c-5.53,9.34-6.61,19.64-6.34,30.22,0,1.32.83,1.33,1.77,1.33,4,0,8.05,0,12.08,0,1.43,0,1.85-.53,1.83-1.89A71.21,71.21,0,0,1,44.61,52a32.48,32.48,0,0,1,63.78-2.59c1,4.39,1,8.86.9,13.32,0,1.35.38,1.95,1.82,1.89C113.12,64.47,115.14,64.54,117.15,64.54Zm-40.45,0H99c1,0,1.84-.06,1.84-1.46a68.73,68.73,0,0,0-.45-10.35C98.75,42.11,89,33.27,78.3,32.72A24,24,0,0,0,53.82,49.87c-1.15,4.05-1,8.2-1.13,12.34,0,1.78.44,2.4,2.31,2.37C62.23,64.48,69.47,64.54,76.7,64.54Z"/><path class="cls-1" d="M89,134.71c0,2.2,0,4.41,0,6.61a12.21,12.21,0,1,1-24.42-.08c0-4.78,0-9.57,0-14.35a3.16,3.16,0,0,0-1.19-2.58c-6.25-5.77-8.5-12.85-6.11-21s8.19-13,16.52-14.44a20.34,20.34,0,0,1,16.58,35.27A3.72,3.72,0,0,0,89,127.35C89,129.8,89,132.26,89,134.71Zm-15.92-2.4h0c0,2.89,0,5.78,0,8.67a3.65,3.65,0,0,0,1.25,3,3.47,3.47,0,0,0,3.86.65,3.63,3.63,0,0,0,2.29-3.57c0-5.47.06-10.94,0-16.4a6.44,6.44,0,0,1,3-6,11.59,11.59,0,0,0,3.79-15.17,11.73,11.73,0,0,0-14.47-5.64,11.14,11.14,0,0,0-7.57,8.89c-.87,4.88.68,9,4.81,11.83a6.38,6.38,0,0,1,3.06,6C73,127.15,73.06,129.73,73.06,132.31Z"/></g></g></svg>