<svg xmlns="http://www.w3.org/2000/svg" viewBox="0 0 174.52 187.18"><defs><style>.cls-1{fill:#3f3f3f;}.cls-2{fill:#fedba8;}.cls-3{fill:#f0bd6d;}.cls-4{fill:#f2f2f2;}.cls-5{fill:#f9f9f9;}.cls-6{fill:#e5e5e4;}.cls-7{fill:#d7d8d8;}.cls-8{fill:#bfbebf;}.cls-9{fill:#d1d1d1;}.cls-10{fill:#9e9e9e;}.cls-11{fill:#c3c2c2;}.cls-12{fill:#f8f7f7;}.cls-13{fill:#fff;}.cls-14{fill:#cac9c9;}.cls-15{fill:#d5d5d4;}</style></defs><g id="Capa_2" data-name="Capa 2"><g id="Capa_1-2" data-name="Capa 1"><path class="cls-1" d="M116,6.3c15.85,9.28,20.75,18.12,19.65,106.74H88.17L87.52,0S103.73-.91,116,6.3Z"/><path class="cls-1" d="M60.3,6.3C44.45,15.58,39.55,24.42,40.65,113H88.17L88.82,0S72.61-.91,60.3,6.3Z"/><path class="cls-2" d="M87.52,92.49,66.6,82v47.43s8.09,9.7,20.92,9.7c15.16,0,20.92-8.94,20.92-8.94V89Z"/><path class="cls-3" d="M108.44,100.45s-10,9.22-41.84,26.54l.07-31Z"/><path class="cls-2" d="M88,7.24h-.5c-8,0-39.75,1.89-34.76,46.77,0,0,5.25,40.66,6.34,42.63s21.61,13.17,28.42,12.68c6.8.49,27.33-10.72,28.42-12.68S122.28,54,122.28,54C126.12,9,96.22,7.3,88,7.24Z"/><path class="cls-2" d="M56,78s-4.73,2.25-8.1-8.6c-4.23-13.64-3.75-18-.35-18,5.26,0,6.72,3.27,6.72,3.27Z"/><path class="cls-1" d="M88.67,0H87.52C78.47.15,44.89,7,52.65,52.86c0,0,20.62-2.59,34.87-10.71,16.2-9.23,27-23.72,27-23.72C116.58,4.65,97.06.09,88.67,0Z"/><path class="cls-4" d="M93.8,187.18H80.86s-22.12-40.21-22-43.73S87.5,131.17,87.5,131.17s23,.13,26.19,1.33C121.53,135.41,105.5,174.21,93.8,187.18Z"/><path class="cls-1" d="M113.58,14.44s-3.75,20.29,8.54,38.42,3.94-24.16,3.94-24.16S117.14,14.44,113.58,14.44Z"/><path class="cls-2" d="M119.05,77.73S124.2,79,126.82,68c3-12.76,2.36-15.49-1-16-2.93-.45-6.12,2.72-6.12,2.72Z"/><rect class="cls-5" x="83.21" y="131.17" width="8.63" height="56.01"/><path class="cls-6" d="M108.48,117.13s-3,10.49-21,14c0,0,6.41,17.47,23.4,10.74C128.56,134.93,119.89,121.45,108.48,117.13Z"/><path class="cls-7" d="M66.57,116.75s3,10.87,20.93,14.42c0,0-6.41,17.47-23.41,10.74C46.44,134.93,55.16,121.07,66.57,116.75Z"/><path class="cls-8" d="M47.11,156.23l4.64-6.69,2.33-3.34-8.45-13.89-3.14-5.18-.06-.09s-32.93,15-33,15.11c-2.34,2.55-6.59,25.29-9.44,45H70.6Z"/><path class="cls-9" d="M127.4,156.23l-33.6,31h80.72c-2.85-19.74-7.1-42.48-9.45-45-.06-.06-33-15.11-33-15.11L120.43,146.2Z"/><polygon class="cls-10" points="54.08 146.2 51.75 149.54 47.11 156.23 70.61 187.18 80.86 187.18 77.18 174.53 64.75 131.88 61 119.01 42.43 127.04 45.63 132.31 54.08 146.2"/><polygon class="cls-11" points="127.4 156.23 120.43 146.2 132.08 127.04 113.99 119.45 110.29 131.86 98.47 171.52 93.8 187.18 103.91 187.18 127.4 156.23"/><path class="cls-12" d="M84,148a3.24,3.24,0,0,0,3.2,3.21v-6.47A3.24,3.24,0,0,0,84,148Z"/><path class="cls-13" d="M87.25,144.77h0v6.47h.06a3.24,3.24,0,1,0,0-6.47Z"/><path class="cls-14" d="M86.78,148a.72.72,0,1,1-1.43,0,.7.7,0,0,1,.7-.72A.72.72,0,0,1,86.78,148Z"/><path class="cls-15" d="M89.35,148a.71.71,0,0,1-.71.72.7.7,0,0,1-.72-.7.71.71,0,0,1,.71-.73A.72.72,0,0,1,89.35,148Z"/><path class="cls-12" d="M84.07,175.08a3.25,3.25,0,0,0,3.21,3.21v-6.46A3.22,3.22,0,0,0,84.07,175.08Z"/><path class="cls-13" d="M87.29,171.82h0v6.46h.06a3.24,3.24,0,0,0,0-6.48Z"/><path class="cls-14" d="M86.82,175.06a.73.73,0,0,1-.71.73.71.71,0,0,1-.72-.71.72.72,0,0,1,1.43,0Z"/><path class="cls-15" d="M89.39,175.05a.72.72,0,1,1-.72-.71A.71.71,0,0,1,89.39,175.05Z"/></g></g></svg>