<svg xmlns="http://www.w3.org/2000/svg" viewBox="0 0 148.57 177.72"><defs><style>.cls-1{fill:#192e4d;}</style></defs><g id="Capa_2" data-name="Capa 2"><g id="Capa_1-2" data-name="Capa 1"><path class="cls-1" d="M78.56,0c4.61.82,9.19,1.8,13.35,4,13.61,7.3,22.14,18.27,23.88,33.9A42.81,42.81,0,0,1,87.28,83.43,43.42,43.42,0,0,1,36.85,66c-9.49-14.63-9.07-36,2.81-50.18C46.88,7.19,55.87,1.66,67.15.2a3.13,3.13,0,0,0,.66-.2ZM41,42.87C40.81,61.21,56.84,75.26,73.8,75c16.45-.28,31.8-14.86,31.52-32.73-.26-16-13.75-31.73-32.25-31.65A32.11,32.11,0,0,0,41,42.87Z"/><path class="cls-1" d="M74.28,177.68c-15,0-29.93.12-44.89-.05A29.23,29.23,0,0,1,7.7,168.35,27.66,27.66,0,0,1,.12,150,103.3,103.3,0,0,1,4.23,115.1c2.29-7.54,5.69-14.52,11.36-20.17,6.53-6.51,14.58-9.3,23.67-9.36A8.92,8.92,0,0,1,44,87.14c2.71,1.66,5.39,3.37,8.07,5.08,7.25,4.59,15.09,7.2,23.74,6.84a41.46,41.46,0,0,0,20.06-6.43,71.86,71.86,0,0,0,6.25-4.06c4-3.09,8.5-3.42,13.31-2.55,11.09,2,18.94,8.29,24.26,18,4.27,7.82,6.33,16.3,7.69,25a122.29,122.29,0,0,1,1.21,17.08c.26,16.5-9,28-24.24,30.95a24.68,24.68,0,0,1-5.49.58c-.35,0-.7,0-1,0H74.28ZM77.18,167c12.36-.27,27.74.46,43.1-.34a18.43,18.43,0,0,0,10.7-4c5.36-4.22,7-10.09,6.7-16.51a123,123,0,0,0-1-14.84c-1.2-7.44-2.68-14.77-6.29-21.5C127,103.45,122.33,98.65,115,97c-3-.67-5.63-.67-8.15,1.4a47.38,47.38,0,0,1-5.5,3.61,52.17,52.17,0,0,1-26.73,8c-7,.12-13.71-1.62-20.2-4.25-5-2-9.28-5.16-13.78-8a5.25,5.25,0,0,0-3.15-1.27,20.64,20.64,0,0,0-14.15,6,33.62,33.62,0,0,0-7.42,12c-4.26,11.37-5.36,23.21-4.86,35.24A17.2,17.2,0,0,0,23.16,165.7,31.75,31.75,0,0,0,33.25,167C46.89,167.08,60.53,167,77.18,167Z"/></g></g></svg>