<svg xmlns="http://www.w3.org/2000/svg" viewBox="0 0 147.43 184.5"><defs><style>.cls-1{fill:#575656;}</style></defs><g id="Capa_2" data-name="Capa 2"><g id="Capa_1-2" data-name="Capa 1"><path class="cls-1" d="M147.43,97.45v72.83c0,8.59-5.61,14.21-14.18,14.21H14.17c-8.38,0-14-5.7-14-14.12C.12,122,.24,73.55,0,25.14,0,17.4,4.68,9.58,15.43,9.68c12.39.11,24.79,0,37.18,0,3.29,0,3.29,0,3.3-3.34,0-.94,0-1.88,0-2.81A3.49,3.49,0,0,1,59.57,0Q73.73,0,87.89,0a3.52,3.52,0,0,1,3.72,3.65,29.71,29.71,0,0,1,0,3.89c-.1,1.61.6,2.16,2.16,2.15,5.69-.05,11.38-.07,17.07,0C118.91,9.8,127,9.37,135,10a13.28,13.28,0,0,1,12.38,13.37Q147.45,60.39,147.43,97.45ZM19,97.12q0,31.25,0,62.47c0,1.95.52,2.6,2.56,2.6q52.31-.09,104.61,0c2,0,2.55-.66,2.55-2.6q-.06-62.36,0-124.72c0-1.91-.45-2.64-2.53-2.63-11.16.1-22.33.07-33.5,0a3.37,3.37,0,0,0-3.17,1.67,12.51,12.51,0,0,1-11,5.71q-4.65,0-9.29,0a12.46,12.46,0,0,1-11-5.71,3.54,3.54,0,0,0-3.39-1.67c-10.95.05-21.91,0-32.86,0-2.91,0-2.92,0-2.92,3Zm120.89.2c0-23.92-.1-47.85.07-71.77,0-5.47-2.36-8.22-8.19-8.1-11.89.26-23.78.06-35.67.09-5,0-4.36-.57-4.4,4.33,0,2.79,0,2.79,2.9,2.79H131.3c3.69,0,4.9,1.22,4.9,4.93q0,67.54,0,135.1c0,3.84-1.2,5.06-5,5.06H16.41c-3.85,0-5.06-1.21-5.06-5q0-67.55,0-135.09c0-3.82,1.18-5,5.07-5,11.67,0,23.34,0,35,0,5.12,0,4.32.71,4.5-4.46.08-2.08-.58-2.72-2.67-2.7-12.75.08-25.5,0-38.26,0-5.23,0-7.29,2.08-7.29,7.35V169.49c0,5.32,2.1,7.41,7.47,7.41H132.34c5.48,0,7.5-2.06,7.5-7.6ZM84,18.11c0-2.88,0-5.76,0-8.63,0-1.41-.54-1.9-1.92-1.89-5.54,0-11.08,0-16.61,0-1.51,0-2,.55-2,2,.05,5.61,0,11.22,0,16.83A5.25,5.25,0,0,0,69.08,32c3,0,6,0,9.07,0,3.69,0,5.77-2,5.85-5.7C84.06,23.58,84,20.84,84,18.11Z"/><path class="cls-1" d="M73.67,117.46q-19.79,0-39.55,0c-3,0-4.57-1.27-4.65-3.65a3.61,3.61,0,0,1,3.24-3.9,11.08,11.08,0,0,1,1.73-.06h78.67c3.06,0,4.6,1,4.92,3.1a3.67,3.67,0,0,1-3.73,4.48c-2.45.11-4.9,0-7.35,0Z"/><path class="cls-1" d="M68.25,89.59H101.1a10.88,10.88,0,0,1,3.21.31,3.62,3.62,0,0,1,2.8,3.66,3.45,3.45,0,0,1-2.9,3.55,14.39,14.39,0,0,1-3.21.32q-32.85,0-65.7,0a14.4,14.4,0,0,1-3-.3,3.34,3.34,0,0,1-2.84-3.34A3.55,3.55,0,0,1,32,90a8.9,8.9,0,0,1,3.2-.37Z"/><path class="cls-1" d="M59.29,74.66H34.67a10.37,10.37,0,0,1-2.16-.1,3.77,3.77,0,0,1-.18-7.38A7.75,7.75,0,0,1,34.26,67q25.07,0,50.11,0C87,67,88.49,68,89,69.79c.7,2.7-1.08,4.84-4.18,4.85C76.28,74.68,67.78,74.66,59.29,74.66Z"/></g></g></svg>