<svg xmlns="http://www.w3.org/2000/svg" viewBox="0 0 225.47 225.45"><defs><style>.cls-1{fill:#575656;}</style></defs><g id="Capa_2" data-name="Capa 2"><g id="Capa_1-2" data-name="Capa 1"><path class="cls-1" d="M0,112.61C0,50.33,50.6,0,113.09,0,175,0,225.6,50.84,225.47,112.89A112.74,112.74,0,0,1,0,112.61ZM113,20.92c-51.32.62-91.9,40.47-91.93,91.84,0,50.63,39.89,91.45,91.5,91.63,50.35.18,91.83-39.77,91.8-91.81C204.36,61.91,164.4,21.86,113,20.92Z"/><path class="cls-1" d="M123.37,79.47c0,8.78,0,17.56,0,26.34a5.86,5.86,0,0,0,1.89,4.63q12.78,12.63,25.4,25.4a10.39,10.39,0,0,1-4.18,17.39c-3.74,1.13-7.37.6-10.24-2.24q-15.65-15.51-31.16-31.15a10.77,10.77,0,0,1-2.92-7.88q0-29.92,0-59.86c0-5.52,3.25-9.7,8-10.86A10.49,10.49,0,0,1,122,46.42a13.41,13.41,0,0,1,1.41,6.48Q123.37,66.19,123.37,79.47Z"/></g></g></svg>