<svg xmlns="http://www.w3.org/2000/svg" viewBox="0 0 178.9 184.14"><defs><style>.cls-1{fill:#575656;}</style></defs><g id="Capa_2" data-name="Capa 2"><g id="Capa_1-2" data-name="Capa 1"><path class="cls-1" d="M110,0a6.23,6.23,0,0,1,1,.41,8.83,8.83,0,0,0,9.41.78c2.32-1.1,4.89.84,5.81,3.71a12.19,12.19,0,0,1-.11,6.9c-1.41,5.4-4.16,10.17-7.14,14.81-.85,1.32-.9,2.21.16,3.43a8.62,8.62,0,0,1,2,6.7,2.22,2.22,0,0,0,1,2.23q3.93,3.15,7.75,6.4c1.63,1.39,1.85,3.05.72,4.38s-2.91,1.35-4.6,0c-2.21-1.84-4.44-3.65-6.63-5.51a2,2,0,0,0-2.68-.28c-3.51,2-7.5,2.44-11.41,2.82a68.17,68.17,0,0,1-20.35-1,19.09,19.09,0,0,1-4.44-1.39,1.78,1.78,0,0,0-2.12.26C66,54.53,55.3,65.88,48.21,80.25a65.67,65.67,0,0,0-6.73,25.86c-.1,2,.31,3.93.34,5.91,0,.82.52,1.16,1.21,1.33,6.35,1.59,12,4.71,17.55,8.06,4.84,2.93,10.17,4,15.7,4.58,8.55.89,17.11,1.82,25.63,2.94a16.85,16.85,0,0,1,14.28,16.66c0,2.28,0,2.28,2.08,1.37L148,133.87a4,4,0,0,0,1.92-1.54,42.83,42.83,0,0,0,6.63-19c1.73-16.47-3.76-30.84-12.89-44.13a89.24,89.24,0,0,0-7.48-9.41A8.94,8.94,0,0,1,135,58.28a2.71,2.71,0,0,1,.47-3.6,2.56,2.56,0,0,1,3.73-.14,30.62,30.62,0,0,1,3,3.29c8.74,10.24,15.46,21.58,18.71,34.78,2.93,11.93,2.6,23.69-2,35.2a6,6,0,0,0-.31.84c0,.09,0,.22.07.43,2.48-.84,4.77-2.16,7.44-2.43,4.38-.46,7.93.95,10.48,4.51a11.39,11.39,0,0,1,1.2,11.89,10.56,10.56,0,0,1-4.18,4.79Q149.29,163.2,125,178.59a34.1,34.1,0,0,1-19.18,5.51c-11.86-.16-23.72-.23-35.56,0a48.06,48.06,0,0,1-19.41-3.59c-6.66-2.68-13.44-5-20.16-7.57-1.32-.5-2.11-.87-2.4,1.22a7.53,7.53,0,0,1-7.21,6.42,73.88,73.88,0,0,1-13.63,0c-4.82-.49-7.43-3.8-7.47-8.92,0-6.11,0-12.21,0-18.32q0-21.2,0-42.39c0-4.56,2.16-7.65,6-8.78a7.36,7.36,0,0,1,2.13-.26c4.13,0,8.26,0,12.39,0a7.78,7.78,0,0,1,8,7.58c.06,1.47.6,1.83,1.93,1.82a24.73,24.73,0,0,1,3.93.34c1.22.18,1.56-.24,1.52-1.44a62.37,62.37,0,0,1,.89-14.11C39.4,82.7,45.52,71,54,60.38A123.19,123.19,0,0,1,73.7,40.86c.52-.41,1-.83,1.66-1.37-1.43-.53-2.68,0-3.9.17-5.13.57-10,2-13.95,5.51a17.81,17.81,0,0,0-2.79,3.27c-1.13,1.65-2.72,2.05-4.17,1.14s-1.78-2.63-.67-4.39a22.27,22.27,0,0,1,10-8.46,35.77,35.77,0,0,1,12.83-3.09,3.2,3.2,0,0,0,.54,0c.61-.18,1.54.06,1.77-.58S74.4,32,73.93,31.56a13.12,13.12,0,0,0-10.61-3.24,24.2,24.2,0,0,1-16.24-4,2.9,2.9,0,1,1,3.07-4.9c4.53,2.85,9.43,3.35,14.65,2.94,4.81-.38,9,1.39,12.7,4.51.18.15.35.32.53.48.43.38.84,1,1.5.45s0-1-.27-1.41c-1.54-2.5-3-5.06-4.24-7.7A31.41,31.41,0,0,1,71.94,9.4a8.25,8.25,0,0,1,1.77-6.89C75,1,76.77.34,78.39,1.2c3.22,1.7,6,1.24,8.88-.68A6.53,6.53,0,0,1,88.41,0h5c1,.54,2.14,1,3.15,1.63a4.76,4.76,0,0,0,5.2.07c1.13-.64,2.34-1.14,3.51-1.7ZM5.91,141.21q0,15.18,0,30.35c0,2.45.79,3.25,3.2,3.26,3.35,0,6.7,0,10.06,0,2.93,0,3.44-.51,3.44-3.46q0-16.16,0-32.32a8.87,8.87,0,0,1,.23-2.67,2.71,2.71,0,0,1,3.12-2.1,2.7,2.7,0,0,1,2.52,2.61,13.34,13.34,0,0,1,0,1.79c0,8.44,0,16.88,0,25.32a2.32,2.32,0,0,0,1.78,2.61c8.94,3.26,17.84,6.6,26.75,9.94a30.19,30.19,0,0,0,10.54,1.84q19,.09,37.9,0A29.22,29.22,0,0,0,122,173.64c3.78-2.52,7.67-4.88,11.51-7.32Q151.9,154.65,170.33,143a5.62,5.62,0,0,0,2.18-7.21,5.29,5.29,0,0,0-6.45-3.15,19.29,19.29,0,0,0-3.71,1.33q-23.25,10.23-46.48,20.48a10.42,10.42,0,0,1-4.34.9c-9.1,0-18.2,0-27.3,0a10.65,10.65,0,0,1-2-.09,2.87,2.87,0,0,1-.52-5.53,6.15,6.15,0,0,1,2.48-.31h24.6c.71,0,1.29-.12,1.4-1,.94-7.23-2.94-12.62-9-13.52-7.92-1.16-15.87-2.09-23.84-2.84-7.11-.67-14-2-20.15-5.77-2-1.24-4.18-2.33-6.29-3.46a46.6,46.6,0,0,0-20.22-5.58c-1.8-.08-2.31.57-2.19,2.25a44.42,44.42,0,0,1,0,5,2.72,2.72,0,0,1-2.66,2.83,2.69,2.69,0,0,1-3.05-2.39,10.85,10.85,0,0,1-.17-2.14c0-4,0-7.9,0-11.85,0-2.62-.52-3.12-3.19-3.13-3.35,0-6.7,0-10,0-2.94,0-3.47.53-3.47,3.44ZM98.21,28.26c4.88,0,9.13-1.06,13.42-1.84.59-.1.88-.58,1.17-1a67.87,67.87,0,0,0,6.67-12.28,14.45,14.45,0,0,0,1.21-4.48c0-1-.34-1.33-1.28-1a9.59,9.59,0,0,1-9.21-1.18,4.43,4.43,0,0,0-5.21.07,9.72,9.72,0,0,1-11.3.08,4.85,4.85,0,0,0-5.81.08,8.88,8.88,0,0,1-8.56,1c-1.39-.56-1.74,0-1.53,1.27a11.88,11.88,0,0,0,.35,1.57c1.65,5.58,4.61,10.49,7.75,15.32a2.4,2.4,0,0,0,1.62,1A73.15,73.15,0,0,0,98.21,28.26Zm-.31,13a55.61,55.61,0,0,0,14.54-1.75,3.33,3.33,0,0,0,2.78-3.29c.18-2.79-1.74-4.29-4.73-3.6a55.77,55.77,0,0,1-14.4,1.36A60.34,60.34,0,0,1,85.8,32.54c-3.13-.65-4.92,1.08-4.45,4.17.3,1.93,1.73,2.61,3.39,3A55,55,0,0,0,97.9,41.21Z"/><path class="cls-1" d="M95.93,98.77c0-2.69-.06-5.39,0-8.08a2.52,2.52,0,0,0-1.78-2.88A25.87,25.87,0,0,1,90.87,86c-7.67-4.22-7.32-14-2.6-19.37a11.49,11.49,0,0,1,5.78-3.76,2.15,2.15,0,0,0,1.89-2.68,5.83,5.83,0,0,1,.32-2.65,2.66,2.66,0,0,1,2.89-1.94c1.46.15,2.77,1.07,2.57,2.5-.49,3.34,1.14,4.49,4,5a10.23,10.23,0,0,1,4.53,2.48A3,3,0,0,1,111,69.8a3,3,0,0,1-4,.56,15.83,15.83,0,0,0-3.8-2c-.88-.26-1.34-.15-1.33.93,0,4.78,0,9.57,0,14.36A1.49,1.49,0,0,0,103,85.2c1.18.42,2.37.85,3.51,1.37a13.87,13.87,0,0,1,8,16.57c-1.5,5.79-5,9.88-10.88,11.6-1.54.45-2,1.19-1.86,2.65a12.09,12.09,0,0,1,0,2.33,2.86,2.86,0,0,1-5.61.54,9.67,9.67,0,0,1-.24-3.21c0-1.11-.36-1.58-1.53-1.69a20.08,20.08,0,0,1-9-3.32c-1.84-1.2-2.39-2.9-1.42-4.39s2.59-1.73,4.41-.62a17.32,17.32,0,0,0,5.22,2.31c1.85.41,2.29.08,2.3-1.77C95.94,104.63,95.93,101.7,95.93,98.77Zm5.9,1.34v7.7c0,.86.13,1.39,1.24,1,3.17-1.14,6-5.3,6.07-9a8.17,8.17,0,0,0-5.56-8.13c-1.25-.5-1.85-.49-1.78,1.13C101.9,95.21,101.83,97.66,101.83,100.11Zm-5.9-25c0-1.78,0-3.57,0-5.36,0-1.24-.5-1.3-1.42-.76a7.64,7.64,0,0,0-3.8,6.86c-.08,2.81,1.73,4.4,4,5.64,1.07.58,1.23.08,1.22-.83C95.92,78.85,95.93,77,95.93,75.15Z"/></g></g></svg>