<svg xmlns="http://www.w3.org/2000/svg" viewBox="0 0 180.67 216.13"><defs><style>.cls-1{fill:#575656;}</style></defs><g id="Capa_2" data-name="Capa 2"><g id="Capa_1-2" data-name="Capa 1"><path class="cls-1" d="M95.54,0c5.6,1,11.17,2.18,16.24,4.91,16.55,8.89,26.92,22.23,29,41.22a52.06,52.06,0,0,1-34.67,55.33c-22.69,8-48.22-1-61.32-21.23-11.54-17.8-11-43.84,3.41-61C57,8.75,67.94,2,81.66.25a5.31,5.31,0,0,0,.8-.25ZM49.88,52.13c-.25,22.31,19.25,39.39,39.87,39,20-.35,38.68-18.09,38.33-39.82-.31-19.51-16.71-38.58-39.21-38.48S49.49,31.49,49.88,52.13Z"/><path class="cls-1" d="M90.33,216.08c-18.2,0-36.4.14-54.59-.05-10.25-.12-19.23-3.74-26.38-11.3a33.63,33.63,0,0,1-9.21-22.3,125.43,125.43,0,0,1,5-42.45c2.79-9.17,6.92-17.67,13.81-24.54,8-7.91,17.74-11.3,28.8-11.37A10.84,10.84,0,0,1,53.48,106c3.29,2,6.55,4.1,9.81,6.17,8.81,5.59,18.35,8.76,28.87,8.32a50.53,50.53,0,0,0,24.4-7.82,86.54,86.54,0,0,0,7.59-4.94c4.93-3.76,10.34-4.15,16.19-3.1,13.49,2.44,23,10.08,29.51,21.93,5.19,9.51,7.7,19.82,9.35,30.43a149,149,0,0,1,1.47,20.77c.32,20.06-10.9,34.08-29.48,37.64a30.57,30.57,0,0,1-6.68.71c-.42,0-.84,0-1.26,0H90.33Zm3.53-12.94c15-.33,33.73.57,52.42-.41a22.51,22.51,0,0,0,13-4.89c6.52-5.14,8.45-12.27,8.15-20.07-.24-6-.2-12.07-1.16-18.06-1.46-9-3.26-18-7.65-26.15-4.16-7.75-9.86-13.59-18.81-15.61-3.59-.81-6.85-.81-9.91,1.71a58,58,0,0,1-6.69,4.39,63.55,63.55,0,0,1-32.51,9.72c-8.55.15-16.68-2-24.57-5.17-6-2.45-11.28-6.27-16.76-9.69-1.18-.74-2.28-1.63-3.83-1.55-6.63.37-12.49,2.58-17.2,7.37a40.79,40.79,0,0,0-9,14.6c-5.18,13.83-6.52,28.23-5.92,42.86a20.94,20.94,0,0,0,14.76,19.33,39,39,0,0,0,12.27,1.59C57,203.19,73.62,203.14,93.86,203.14Z"/></g></g></svg>