<svg xmlns="http://www.w3.org/2000/svg" viewBox="0 0 228.34 226.28"><defs><style>.cls-1{fill:#39b7b5;}</style></defs><g id="Capa_2" data-name="Capa 2"><g id="Capa_1-2" data-name="Capa 1"><path class="cls-1" d="M228.34,169.26c-2.68,5.78-7,8.17-12.38,6.81a8.9,8.9,0,0,1-5.76-4.23,2.88,2.88,0,0,0-2.82-1.67q-17,.06-34.08,0c-1.71,0-2.4.53-2.35,2.31.11,3.56.1,7.12,0,10.69a3.94,3.94,0,0,0,1.94,3.85c3.76,2.47,4.64,6.29,3.74,10.4a9.17,9.17,0,0,1-7.7,7.43,9.51,9.51,0,0,1-10-3.94,9.85,9.85,0,0,1,2.84-14.35,3.4,3.4,0,0,0,1.86-3.39c-.09-4.38-.07-8.76,0-13.14a3.1,3.1,0,0,0-1.41-2.8q-12.54-9.08-25-18.22a2.19,2.19,0,0,0-2.8-.08q-7.29,4.31-14.66,8.46a3,3,0,0,0-1.8,3q.11,10.14,0,20.27c0,1.7.46,2.52,2.26,2.33a15.61,15.61,0,0,1,2.9,0c2.87.28,5-.28,6.88-3,3.12-4.44,10.45-4.38,14.46-.41a10.18,10.18,0,0,1-.47,14.53c-4.54,3.9-11.45,3.26-14.7-1.63a4.24,4.24,0,0,0-4.38-2.15,39.89,39.89,0,0,1-4.89,0c-1.58-.08-2.08.6-2,2.11.06,4.08.07,8.17,0,12.25a3.3,3.3,0,0,0,1.75,3.24,10,10,0,0,1-10.6,17,10.2,10.2,0,0,1-3.42-13.67,8.85,8.85,0,0,1,3.41-3.43,2.69,2.69,0,0,0,1.54-2.68q-.09-6.34,0-12.69c0-1.53-.52-2.2-2.07-2.08a21.44,21.44,0,0,1-2.89,0c-2.87-.19-5.1.1-7.16,3-3.3,4.56-10.39,4.4-14.41.35a10.21,10.21,0,0,1,.21-14.24c4.12-3.87,11.24-3.73,14.45.77,1.76,2.46,3.61,2.94,6.3,2.87,5.55-.16,5.55-.05,5.55-5.51,0-5.72,0-11.43,0-17.15a2.86,2.86,0,0,0-1.63-2.85c-5-2.85-10-5.73-15-8.68a2.06,2.06,0,0,0-2.61.22q-12.5,9.12-25,18.21a3.09,3.09,0,0,0-1.4,2.81c.06,4.16.11,8.32,0,12.47a4.19,4.19,0,0,0,2.24,4.32A8.87,8.87,0,0,1,71.43,196c-.5,4.36-2.83,7.45-7.21,8.66a9.41,9.41,0,0,1-10.1-2.94,10,10,0,0,1,1.72-14.86,3.6,3.6,0,0,0,1.77-3.48c-.08-3.49-.14-7,0-10.46.1-2.22-.76-2.76-2.83-2.74-11,.08-22,.06-33,0A3.66,3.66,0,0,0,18.21,172a9.64,9.64,0,0,1-11.33,3.89A10,10,0,0,1,6.94,157a9.71,9.71,0,0,1,11.46,4.13,3.3,3.3,0,0,0,3.21,1.78q18.26-.08,36.53,0a5.55,5.55,0,0,0,3.47-1.17C69,156.28,76.46,150.84,84,145.5c1.73-1.23,1.43-1.77-.23-2.61-2-1-3.94-2.39-6-3.4a6,6,0,0,1-3.65-6.24c.16-4.67,0-9.35.07-14,0-1.82-.55-2.49-2.42-2.44-4.15.11-8.31.1-12.47,0-1.73,0-2.34.52-2.32,2.29.09,6.83,0,13.66,0,20.49,0,3.74-1.14,4.86-4.94,4.88-2.75,0-5.5.06-8.24,0a3.25,3.25,0,0,0-3.25,1.71,9.64,9.64,0,0,1-11.3,4,9.43,9.43,0,0,1-6.87-9.1c-.07-4.85,2.37-8.38,6.79-9.84a9.67,9.67,0,0,1,11.35,3.88,3.77,3.77,0,0,0,3.74,2.06c6.25-.17,5.42.84,5.48-5.42,0-4.16-.06-8.32,0-12.48,0-1.84-.64-2.45-2.47-2.43q-12.81.1-25.62,0a3.46,3.46,0,0,0-3.38,1.85,9.93,9.93,0,0,1-14.11,2.65A10.15,10.15,0,0,1,1.73,107.4,10.22,10.22,0,0,1,15.78,105,5.77,5.77,0,0,1,18,107.13c.94,2.16,2.61,2.38,4.69,2.35q12.24-.14,24.5,0c1.91,0,2.65-.56,2.61-2.53-.1-5.12-.09-10.25,0-15.37,0-1.84-.64-2.62-2.47-2.42a9,9,0,0,1-2,0,5.1,5.1,0,0,0-5.38,2.43c-2.51,3.62-7.13,4.57-11.39,2.92s-6.31-5.15-6.14-10a9.45,9.45,0,0,1,6.88-8.64c4.36-1.3,8.89,0,11.15,3.81a4.16,4.16,0,0,0,4.33,2.22c2.67-.12,5.35-.07,8,0,2.9.06,4.21,1.37,4.22,4.25,0,7,0,14,0,20.94,0,1.78.45,2.52,2.36,2.47q6.24-.17,12.47,0c1.93,0,2.41-.73,2.37-2.5-.09-3.93,0-7.87,0-11.8-.07-2.73.81-4.68,3.38-5.93,2.39-1.17,4.63-2.66,7-4,1-.55,1.11-1,.1-1.74q-11.73-8.48-23.41-17a4.39,4.39,0,0,0-2.77-.65c-12.32,0-24.65,0-37,0a3.23,3.23,0,0,0-3.05,1.73,9.61,9.61,0,0,1-11.47,4C2.53,70.19.06,66.69.08,62A9.38,9.38,0,0,1,7,52.66,9.64,9.64,0,0,1,18.39,56.8a3.41,3.41,0,0,0,3.38,1.85c11.07-.06,22.13-.08,33.19,0,2,0,2.75-.56,2.67-2.63-.15-3.79-.08-7.58,0-11.36a2.75,2.75,0,0,0-1.46-2.73,9.09,9.09,0,0,1-4-4.93,3.43,3.43,0,0,1,1.72-4.5,3.49,3.49,0,0,1,4.68,1.24c.25.36.41.79.67,1.15a2.59,2.59,0,0,0,3.25,1.22,2.49,2.49,0,0,0,1.75-2.57A2.6,2.6,0,0,0,62,30.89c-.36-.09-.74-.08-1.1-.18a3.66,3.66,0,0,1,1.26-7.2,10,10,0,0,1,8.94,7.24c1.21,4.37-.3,8.88-4,11.08a3.79,3.79,0,0,0-2.15,3.89c.13,4.15.09,8.31,0,12.47a3.58,3.58,0,0,0,1.64,3.35Q79,70.45,91.24,79.49a2.37,2.37,0,0,0,3,.13q7.2-4.23,14.46-8.36a2.57,2.57,0,0,0,1.43-2.52c0-7,0-14.11,0-21.16,0-1.57-.56-2.16-2.09-2a17.94,17.94,0,0,1-3.11,0c-2.6-.27-4.47.29-6,2.8-2.2,3.48-7.06,4.46-11.22,2.93a9.89,9.89,0,0,1,.62-18.76,9.66,9.66,0,0,1,11.41,4.18,3,3,0,0,0,2.89,1.6c1.93-.07,3.86,0,5.79,0,1.2,0,1.75-.51,1.74-1.74,0-5.27,0-10.55,0-15.82,0-1.34-.9-1.71-1.78-2.27A9.64,9.64,0,0,1,104,7.82,9.33,9.33,0,0,1,111.57.24a9.82,9.82,0,0,1,11.1,5.36c2.12,4.66,1,9.71-3.15,12.45a4.31,4.31,0,0,0-2.11,4.21c.11,4.52.1,9.06,0,13.58,0,1.85.64,2.6,2.47,2.44a18.59,18.59,0,0,1,2.89,0c3,.24,5.3-.14,7.34-3.06,2.58-3.73,8.25-4.16,12.34-1.79a9.94,9.94,0,0,1,4.44,11.36,9.82,9.82,0,0,1-10.1,7.12,9,9,0,0,1-7.92-4.57,3.24,3.24,0,0,0-3.41-1.81c-2,.11-4,.08-6,0-1.41,0-2,.45-2,1.92q0,10.35,0,20.71a2.62,2.62,0,0,0,1.46,2.52q7.83,4.49,15.61,9a2.25,2.25,0,0,0,2.82-.23q12.39-9.09,24.85-18.08a3.28,3.28,0,0,0,1.46-3c-.06-4.38-.07-8.76,0-13.14a3.12,3.12,0,0,0-1.76-3.19,9.83,9.83,0,0,1-3.36-13.76A10,10,0,0,1,172,24.82a10.29,10.29,0,0,1,3.84,13.59,8,8,0,0,1-3.15,3.38A3,3,0,0,0,171,44.85c.08,3.93.06,7.87,0,11.8,0,1.41.45,2,1.93,2q17.37-.06,34.74,0a1.91,1.91,0,0,0,2-1c3.7-7.68,15.56-7.19,18.68,1.65V65a2.93,2.93,0,0,0-.21.39c-2.71,7.87-14.07,9.25-18.21,1.7a2.55,2.55,0,0,0-2.62-1.24q-18.6,0-37.19,0a4.71,4.71,0,0,0-2.93.83q-11.51,8.41-23.05,16.77c-1.1.79-1,1.26.1,1.87,2.33,1.31,4.57,2.78,7,4s3.34,3.13,3.28,5.76c-.08,3.93.06,7.87-.05,11.8,0,1.87.44,2.69,2.48,2.63,4.15-.14,8.31-.11,12.47,0,1.79,0,2.28-.64,2.26-2.35-.07-7,0-14.1,0-21.16,0-2.75,1.32-4.08,4.09-4.14s5.35-.13,8,0a4.38,4.38,0,0,0,4.5-2.3c3.16-4.9,10.1-5.62,14.68-1.81a10.17,10.17,0,0,1,.63,14.54c-4.12,4.17-11.28,4.07-14.76-.59-1.57-2.09-3.17-2.83-5.56-2.53a7.49,7.49,0,0,1-1.77,0c-1.9-.22-2.67.51-2.63,2.5.1,5.12.09,10.24,0,15.36,0,1.83.61,2.47,2.46,2.46q12.91-.11,25.83,0a3,3,0,0,0,3-1.66,8.67,8.67,0,0,1,5.27-4.18c5.52-1.69,10.36.86,12.92,6.82v5.35c-1.47,4.15-4.31,6.74-8.75,7.2a9.43,9.43,0,0,1-9.81-5.14,2.17,2.17,0,0,0-2.24-1c-8.84,0-17.68,0-26.51,0-1.67,0-2.22.64-2.2,2.24,0,4.31,0,8.61,0,12.92,0,5.89-.63,5,5.07,5.16A4.13,4.13,0,0,0,188.1,135c2.64-4.23,8-5.5,12.59-3.33a9.82,9.82,0,0,1,5.2,11.77,9.45,9.45,0,0,1-8.34,7,9,9,0,0,1-9.4-4.2,3.6,3.6,0,0,0-3.62-1.87c-2.75.11-5.5.05-8.24,0-3.48,0-4.68-1.22-4.68-4.69,0-6.9,0-13.81,0-20.71,0-1.59-.43-2.28-2.13-2.25-4.38.09-8.76,0-13.14,0-1,0-1.74.1-2,1.24-.55,2.18-2,3.3-4.25,3-2.1-.32-2.95-1.69-2.95-4.51,0-6.24-.08-12.47,0-18.71a3.67,3.67,0,0,0-2.14-3.7q-14.41-8.19-28.75-16.56a3.37,3.37,0,0,0-3.88,0Q98,85.9,83.44,94.15a3.56,3.56,0,0,0-2,3.55q.1,16.59,0,33.19a3.53,3.53,0,0,0,2,3.53c9.1,5.17,18.22,10.32,27.17,15.74,2.71,1.65,4.64,1.63,7.35,0,9.72-5.87,19.62-11.44,29.46-17.11,3-1.76,4.95-1.58,6.18.52s.42,4-2.65,5.82c-2.11,1.24-4.2,2.54-6.38,3.65-1.66.85-1.44,1.4-.08,2.37q11.4,8.19,22.7,16.5a5,5,0,0,0,3.09,1q18.38,0,36.75,0a3.12,3.12,0,0,0,3.05-1.66,9.2,9.2,0,0,1,8.32-4.65c5,0,8,2.6,9.93,6.88ZM61.56,197.67a2.51,2.51,0,0,0,2.66-2.6,2.63,2.63,0,0,0-2.66-2.88,2.91,2.91,0,0,0-2.76,2.88A2.62,2.62,0,0,0,61.56,197.67ZM116.38,9.83a2.52,2.52,0,0,0-2.72-2.54A2.67,2.67,0,0,0,111,10a2.79,2.79,0,0,0,2.91,2.72A2.58,2.58,0,0,0,116.38,9.83Zm47.94,23.6a2.63,2.63,0,0,0,2.54,2.86,2.79,2.79,0,0,0,2.88-2.73,2.62,2.62,0,0,0-2.69-2.67A2.55,2.55,0,0,0,164.32,33.43ZM12.61,62.35c0-1.85-.89-2.78-2.51-2.93a2.67,2.67,0,0,0-2.81,2.74A2.57,2.57,0,0,0,10,64.81,2.42,2.42,0,0,0,12.61,62.35ZM32,88a2.62,2.62,0,0,0,2.88-2.59,2.49,2.49,0,0,0-2.44-2.82A2.71,2.71,0,0,0,32,88Zm2.87,53.08c0-2-1.14-3.33-2.67-3.2a2.56,2.56,0,0,0-2.61,2.72,2.5,2.5,0,0,0,2.62,2.68A2.36,2.36,0,0,0,34.86,141.07Zm161.27,2.22a2.63,2.63,0,0,0,2.86-2.58,2.69,2.69,0,0,0-2.71-2.85,2.56,2.56,0,0,0-2.58,2.73A2.43,2.43,0,0,0,196.13,143.29ZM12.59,166.89c0-2-1.15-3.32-2.68-3.19a2.56,2.56,0,0,0-2.6,2.73,2.47,2.47,0,0,0,2.62,2.67A2.36,2.36,0,0,0,12.59,166.89Zm205.67,2.22a2.8,2.8,0,0,0,3-2.61,2.77,2.77,0,0,0-2.79-2.8,2.55,2.55,0,0,0-2.52,2.78A2.35,2.35,0,0,0,218.26,169.11Zm-81.34,20.07c1.91,0,3-1,3-2.56a2.57,2.57,0,0,0-2.58-2.73,2.7,2.7,0,0,0-2.84,2.73A2.45,2.45,0,0,0,136.92,189.18Zm30.19,8.48a2.57,2.57,0,0,0,2.65-2.65,2.7,2.7,0,0,0-2.9-2.66c-1.54.22-2.61,1.07-2.5,2.79A2.48,2.48,0,0,0,167.11,197.66ZM88.58,42.07a2.72,2.72,0,1,0,2.61-2.73A2.57,2.57,0,0,0,88.58,42.07Zm51.4.15a2.71,2.71,0,1,0-5.42-.22,2.76,2.76,0,0,0,2.87,2.72C139,44.5,140,43.63,140,42.22Zm78.61,22.64c1.69-.22,2.7-1.17,2.67-2.78a2.52,2.52,0,0,0-2.72-2.65A2.46,2.46,0,0,0,216,62.18C216,63.93,217,64.67,218.59,64.86ZM196.26,88A2.66,2.66,0,0,0,199,85.3a2.51,2.51,0,0,0-2.66-2.7,2.43,2.43,0,0,0-2.62,2.68C193.66,87,194.7,87.8,196.26,88ZM116.9,216.2a2.44,2.44,0,0,0-2.66-2.62,2.68,2.68,0,0,0,.09,5.36C116,218.92,116.85,217.89,116.9,216.2ZM91,189.2c1.7,0,2.76-.7,2.94-2.27a2.75,2.75,0,0,0-2.55-3.05c-1.57.08-2.73.87-2.77,2.58A2.43,2.43,0,0,0,91,189.2ZM12.61,113.08a2.44,2.44,0,0,0-2.71-2.54,2.37,2.37,0,0,0-2.62,2.61A2.44,2.44,0,0,0,10,115.71,2.44,2.44,0,0,0,12.61,113.08Zm205.72,2.63c2,0,2.93-1,2.91-2.65a2.37,2.37,0,0,0-2.74-2.52,2.59,2.59,0,0,0-.17,5.17Z" transform="translate(0 0)"/><path class="cls-1" d="M93.68,125c.16-.52.35-1.23.61-1.92,2.67-7.06,5.38-14.12,8-21.19.79-2.1,1.93-3.81,4.37-3.78s3.55,1.69,4.33,3.83c2.51,6.81,5.12,13.58,7.67,20.38a11.41,11.41,0,0,1,.69,2.34,3.38,3.38,0,0,1-2.42,4c-1.79.62-3.64,0-4.06-1.73-1-3.85-3.51-3.94-6.7-3.9-2.75,0-4.82.22-5.57,3.48-.42,1.82-2.12,2.66-4,2.23S93.88,127,93.68,125Z" transform="translate(0 0)"/><path class="cls-1" d="M130.44,113.51c0,3.63,0,7.26,0,10.89,0,2.73-1.47,4.4-3.67,4.39s-3.64-1.65-3.66-4.43q-.06-11,0-22c0-2.72,1.55-4.33,3.79-4.27s3.49,1.67,3.53,4.31C130.48,106.1,130.44,109.81,130.44,113.51Z" transform="translate(0 0)"/></g></g></svg>