<svg xmlns="http://www.w3.org/2000/svg" viewBox="0 0 87.46 57.07"><defs><style>.cls-1{fill:#575656;}</style></defs><g id="Capa_2" data-name="Capa 2"><g id="Capa_1-2" data-name="Capa 1"><path class="cls-1" d="M43.79,0H80.88A6.12,6.12,0,0,1,87.2,4.66a10,10,0,0,1,.26,2.45V50c0,3.32-1.43,5.65-4,6.6a7.17,7.17,0,0,1-2.51.44H6.54c-4,0-6.51-2.68-6.53-6.86,0-7,0-13.91,0-20.87Q0,18.17,0,7c0-2.4.65-4.5,2.76-5.91A7,7,0,0,1,6.81,0ZM7.45,53.71H80c-.19-.27-.29-.43-.42-.58Q68.85,40.29,58.15,27.45c-.5-.61-.82-.52-1.34-.09-2.31,1.87-4.61,3.73-7,5.55a9.58,9.58,0,0,1-12.23,0c-2.2-1.69-4.34-3.44-6.5-5.17-1.46-1.17-1.13-1.05-2.23.26-5.28,6.29-10.52,12.6-15.78,18.9ZM6.3,3.35A1.42,1.42,0,0,0,7,4.2L39.32,30.08a6.54,6.54,0,0,0,8.84,0L80.49,4.19c.26-.21.62-.36.64-.84ZM3.39,28.74q0,10.62,0,21.25a13.82,13.82,0,0,0,.06,1.58c0,.35.13.78.52.89s.45-.32.63-.54Q15.67,38.69,26.73,25.45c.55-.65.39-.94-.17-1.39Q15.51,15.26,4.46,6.42c-.27-.22-.53-.69-.87-.52S3.4,6.61,3.4,7Q3.39,17.86,3.39,28.74Zm80.68.09v-22c0-.31.15-.73-.19-.89s-.51.23-.73.41Q72,15.2,60.91,24.08c-.59.46-.7.75-.17,1.38,4.86,5.78,9.67,11.59,14.5,17.39L82.9,52c.53.63.78.59,1-.18a5.22,5.22,0,0,0,.13-1.67Z"/></g></g></svg>