<svg xmlns="http://www.w3.org/2000/svg" viewBox="0 0 60.2 69.67"><defs><style>.cls-1{fill:#575656;}</style></defs><g id="Capa_2" data-name="Capa 2"><g id="Capa_1-2" data-name="Capa 1"><path class="cls-1" d="M30.09,69.67H6.7A6.31,6.31,0,0,1,0,63V31.63A6.31,6.31,0,0,1,5,25.4a7.91,7.91,0,0,1,2.06-.08c.63,0,.82-.21.8-.81a29.35,29.35,0,0,1,.54-7.06,22.21,22.21,0,0,1,43.45.31,29.79,29.79,0,0,1,.48,6c0,1.85-.22,1.6,1.55,1.58a6,6,0,0,1,4.61,2,5.89,5.89,0,0,1,1.69,4.15q0,16,0,32.05a6.25,6.25,0,0,1-6.27,6.18C46,69.68,38,69.67,30.09,69.67Zm.09-41H6.72c-2.29,0-3.37,1.06-3.37,3.33V63a3,3,0,0,0,3.32,3.33H53.52A3,3,0,0,0,56.85,63V32c0-2.27-1.08-3.34-3.36-3.34Zm15.76-3.33c.81,0,1.62,0,2.44,0,.43,0,.62-.13.62-.59a31.55,31.55,0,0,0-.34-5.83A18.79,18.79,0,0,0,28.15,3.48a18.45,18.45,0,0,0-14.46,9.46c-2.17,3.66-2.6,7.7-2.49,11.85,0,.52.32.52.69.52,1.58,0,3.16,0,4.74,0,.56,0,.73-.21.72-.74a28.18,28.18,0,0,1,.14-4.21,12.74,12.74,0,0,1,25-1,20.88,20.88,0,0,1,.35,5.23c0,.53.15.76.72.74C44.36,25.28,45.15,25.31,45.94,25.31Zm-15.86,0h8.73c.41,0,.72,0,.72-.57a26.17,26.17,0,0,0-.18-4.06,9.55,9.55,0,0,0-8.65-7.85,9.44,9.44,0,0,0-9.6,6.72,19.23,19.23,0,0,0-.44,4.84c0,.7.17.94.9.93C24.4,25.28,27.24,25.31,30.08,25.31Z"/><path class="cls-1" d="M34.89,52.82v2.59a4.79,4.79,0,1,1-9.58,0c0-1.88,0-3.75,0-5.63a1.26,1.26,0,0,0-.47-1,7.63,7.63,0,0,1-2.39-8.24,7.64,7.64,0,0,1,6.47-5.66,8,8,0,0,1,6.5,13.82,1.45,1.45,0,0,0-.55,1.27C34.91,50.9,34.89,51.86,34.89,52.82Zm-6.24-.94h0v3.4a1.41,1.41,0,0,0,.49,1.18,1.36,1.36,0,0,0,1.51.26,1.43,1.43,0,0,0,.9-1.4c0-2.15,0-4.29,0-6.43a2.52,2.52,0,0,1,1.18-2.36,4.62,4.62,0,0,0-4.18-8.16,4.61,4.61,0,0,0-1.08,8.12,2.49,2.49,0,0,1,1.19,2.36C28.62,49.86,28.65,50.87,28.65,51.88Z"/></g></g></svg>