<svg xmlns="http://www.w3.org/2000/svg" viewBox="0 0 56.04 67.03"><defs><style>.cls-1{fill:#575656;}</style></defs><g id="Capa_2" data-name="Capa 2"><g id="Capa_1-2" data-name="Capa 1"><path class="cls-1" d="M29.63,0a16.7,16.7,0,0,1,5,1.52c5.13,2.76,8.35,6.9,9,12.79A16.14,16.14,0,0,1,32.92,31.47a16.36,16.36,0,0,1-19-6.59A16.36,16.36,0,0,1,15,6,15.82,15.82,0,0,1,25.33.08,1.44,1.44,0,0,0,25.58,0ZM15.47,16.17A12.24,12.24,0,0,0,27.84,28.28,12.42,12.42,0,0,0,39.72,15.93,12.27,12.27,0,0,0,27.56,4,12.11,12.11,0,0,0,15.47,16.17Z"/><path class="cls-1" d="M28,67c-5.65,0-11.29,0-16.94,0A11,11,0,0,1,2.9,63.5,10.44,10.44,0,0,1,.05,56.58,39,39,0,0,1,1.59,43.42a17.7,17.7,0,0,1,4.29-7.61,12.2,12.2,0,0,1,8.93-3.53,3.38,3.38,0,0,1,1.78.59c1,.62,2,1.27,3,1.91a15.17,15.17,0,0,0,9,2.58,15.56,15.56,0,0,0,7.57-2.42c.8-.49,1.61-1,2.36-1.53a6,6,0,0,1,5-1,12.57,12.57,0,0,1,9.15,6.8,28.47,28.47,0,0,1,2.9,9.43A46.4,46.4,0,0,1,56,55.13c.1,6.22-3.38,10.57-9.14,11.67a9.58,9.58,0,0,1-2.07.22H28Zm1.09-4c4.66-.11,10.46.17,16.26-.13a6.92,6.92,0,0,0,6.56-7.75,45.77,45.77,0,0,0-.36-5.6,25.19,25.19,0,0,0-2.37-8.1,8.72,8.72,0,0,0-5.83-4.85,3.31,3.31,0,0,0-3.08.53,16.78,16.78,0,0,1-2.07,1.36,19.74,19.74,0,0,1-10.09,3,19.28,19.28,0,0,1-7.62-1.6,34.37,34.37,0,0,1-5.19-3,2,2,0,0,0-1.19-.48,7.84,7.84,0,0,0-5.34,2.28A12.9,12.9,0,0,0,6,43.21a33.58,33.58,0,0,0-1.83,13.3,6.49,6.49,0,0,0,4.58,6,12.26,12.26,0,0,0,3.8.5C17.69,63,22.83,63,29.11,63Z"/></g></g></svg>